<?xml version="1.0" encoding="utf-8"?>
<!-- Generator: Adobe Illustrator 21.1.0, SVG Export Plug-In . SVG Version: 6.00 Build 0)  -->
<svg version="1.1" id="Layer_1" xmlns="http://www.w3.org/2000/svg" x="0px" y="0px"
     viewBox="0 0 300 300" enable-background="new 0 0 300 300" xml:space="preserve">
<g id="Layer_1_1_" display="none">
	<g id="kha2TZ.tif" display="inline">
		<g>
			<path fill="#FEFEFD" d="M228.6,61.3c4.9,0,9.8,0,14.7,0c0,60.7,0,121.3,0,182c-61.7,0-123.4,0-185.1,0c0-60.7,0-121.3,0-182
				c3.5,0,6.9,0,10.4,0c0.1,0.2,0.1,0.4,0.2,0.6c0,0.4,0.1,0.8,0.1,1.2c0.1,0.4,0.2,0.8,0.3,1.3c0.3,3.3,0.5,6.5,0.8,9.8
				c1,10.8,2,21.5,2.9,32.3c0.7,7.6,1.3,15.2,2,22.8c0.9,10,1.9,20.1,2.8,30.1c0.7,8,1.3,16,2,24.1c1.1,12.7,2.4,25.4,3.4,38.1
				c0.2,1.9,0.8,2.6,2.6,3.1c20.3,5.6,40.6,11.4,60.9,17c1.4,0.4,3,0.3,4.4-0.1c15-4.1,30-8.3,45.1-12.5c5.3-1.5,10.6-3,15.9-4.5
				c1.5-0.4,2.4-1,2.5-2.8c0.2-4,0.7-7.9,1.1-11.9c0.7-7.8,1.3-15.6,2-23.5c1-10.7,2-21.3,2.9-32c0.7-7.7,1.3-15.4,2-23.2
				c0.9-10.6,1.9-21.1,2.9-31.7c0.5-5.8,1.1-11.6,1.6-17.3c0.6-6.8,1-13.6,1.5-20.4C228.6,61.7,228.6,61.5,228.6,61.3z"/>
      <path fill="#DEC148" d="M68.8,61.9c-0.1-0.2-0.1-0.4-0.2-0.6c53.3,0,106.6,0,159.9,0c0,0.2,0.1,0.4,0.1,0.6c-1.6,0-3.3,0-4.9,0
				C172.1,61.9,120.5,61.9,68.8,61.9z"/>
      <path fill="#D9B92E" d="M68.8,61.9c51.7,0,103.3,0,155,0c1.6,0,3.3,0,4.9,0c-0.5,6.8-1,13.6-1.5,20.4c-0.5,5.8-1.1,11.6-1.6,17.3
				c-1,10.6-2,21.1-2.9,31.7c-0.7,7.7-1.3,15.4-2,23.2c-1,10.7-2,21.3-2.9,32c-0.7,7.8-1.3,15.6-2,23.5c-0.3,4-0.9,7.9-1.1,11.9
				c-0.1,1.8-1,2.4-2.5,2.8c-5.3,1.4-10.6,3-15.9,4.5c-15,4.2-30,8.4-45.1,12.5c-1.4,0.4-3,0.4-4.4,0.1c-20.3-5.6-40.6-11.4-60.9-17
				c-1.8-0.5-2.4-1.2-2.6-3.1c-1.1-12.7-2.3-25.4-3.4-38.1c-0.7-8-1.3-16-2-24.1c-0.9-10-1.9-20.1-2.8-30.1
				c-0.7-7.6-1.3-15.2-2-22.8c-1-10.8-2-21.5-2.9-32.3c-0.3-3.2-0.5-6.5-0.8-9.8c1-0.7,0.5-1-0.3-1.3C68.9,62.7,68.8,62.3,68.8,61.9
				z M96,171.5c-0.3,0.4-0.9,0.9-0.9,1.3C95,177.9,95,183,95,188c0,0.4,0.6,0.9,0.9,1.3c2.1,0.8,4.1,1.7,6.2,2.3
				c12.6,3.5,25.2,7,37.8,10.5c0.9,0.2,1.9,0.1,2.8,0.1c1.9-0.1,1.2-1.6,1.2-2.6c0-33.7,0-67.4,0-101.1c0-0.6-0.1-1.2-0.1-1.8
				c-0.4,0-0.8,0.1-1.1,0.1c-0.2-0.1-0.4-0.1-0.5-0.1c-0.2,0-0.5-0.1-0.7-0.1c-4.4,0-8.9-0.1-13.3-0.1c-0.4,0.1-1.1,0.2-1.1,0.4
				c-0.1,1.4-0.1,2.8-0.1,4.3c0,26.1,0,52.2,0,78.4c-6.3-1.7-12.6-3.4-18.9-5.1C104.1,173.4,100,172.5,96,171.5z M214.4,75.5
				c-1-0.1-1.6-0.1-2.1-0.1c-19.9,0-39.8,0-59.7,0c-2.6,0-2.6,0-3.1,2.8c-0.2,1.2-0.5,2.4-0.5,3.6c0,48.2,0,96.4,0,144.5
				c0,0.9,0.1,1.7,0.2,2.9c8.7-2.3,17.1-4.6,25.4-6.8c4.2-1.1,8.3-2.4,12.5-3.6c4.5-1.3,9-2.4,13.4-3.7c0.7-0.2,1.6-1.1,1.7-1.7
				c0.4-2.7,0.5-5.4,0.7-8.2c0.2-3.1,0.4-6.3,0.7-9.4c0.5-5.4,1.2-10.8,1.7-16.3c0.3-3.5,0.4-7.1,0.7-10.6c0.2-2.7,0.4-5.5,0.7-8.2
				c0.3-3.5,0.8-7,1.1-10.5c0.3-3.3,0.4-6.7,0.7-10c0.2-2.4,0.4-4.8,0.7-7.3c0.4-3.4,0.8-6.8,1.1-10.2c0.3-3,0.4-6.1,0.7-9.1
				c0.4-4.2,0.8-8.5,1.2-12.7c0.2-2.7,0.4-5.5,0.7-8.2C213.2,87.1,213.8,81.5,214.4,75.5z"/>
      <path fill="#DEC148" d="M68.9,63.1c0.9,0.2,1.3,0.6,0.3,1.3C69.1,63.9,69,63.5,68.9,63.1z"/>
      <path fill="#FED73B" d="M214.4,75.5c-0.6,6-1.2,11.6-1.7,17.2c-0.3,2.7-0.4,5.5-0.7,8.2c-0.4,4.2-0.8,8.5-1.2,12.7
				c-0.3,3-0.4,6.1-0.7,9.1c-0.3,3.4-0.8,6.8-1.1,10.2c-0.3,2.4-0.5,4.8-0.7,7.3c-0.2,3.3-0.4,6.7-0.7,10c-0.3,3.5-0.8,7-1.1,10.5
				c-0.3,2.7-0.5,5.4-0.7,8.2c-0.2,3.5-0.3,7.1-0.7,10.6c-0.5,5.4-1.2,10.8-1.7,16.3c-0.3,3.1-0.4,6.3-0.7,9.4
				c-0.2,2.7-0.3,5.5-0.7,8.2c-0.1,0.7-1,1.5-1.7,1.7c-4.5,1.3-9,2.5-13.4,3.7c-4.2,1.2-8.3,2.5-12.5,3.6
				c-8.4,2.3-16.7,4.5-25.4,6.8c-0.1-1.1-0.2-2-0.2-2.9c0-48.2,0-96.4,0-144.5c0-1.2,0.3-2.4,0.5-3.6c0.5-2.8,0.5-2.8,3.1-2.8
				c19.9,0,39.8,0,59.7,0C212.9,75.4,213.5,75.4,214.4,75.5z M205.1,114.7c0.2-0.6,0.5-1.1,0.7-1.7c-0.1-1.1-0.2-2.1-0.3-3.2
				c0.2-0.2,0.7-0.3,0.7-0.5c0.3-3.5,0.6-7.1,0.8-10.6c0-0.2-0.6-0.4-0.9-0.6c0.2-1.9-1-1.8-2.3-1.8c-15.6,0-31.1,0-46.7,0
				c-0.7,0-1.3,0.3-2,0.5c-0.2,0.8-0.7,1.6-0.7,2.5c0,20.7,0,41.3,0,62c0,0.8,0.4,1.6,0.7,2.5c0,0.4,0,0.8,0,1.1
				c-0.1,0.1-0.3,0.2-0.4,0.3c0.2,0.1,0.4,0.2,0.5,0.3c10.5-1.8,20.9-3.6,31.4-5.5c0,3.9,0.1,7.4,0,11c-0.2,5-0.2,4.9-5,6.2
				c-8.1,2.1-16.1,4.2-24.2,6.4c-1.1,0.3-2.6,0.3-2.4,2.1c-0.2,0.4-0.7,0.8-0.7,1.2c0,4.7,0,9.5,0,14.2c0,0.4,0.5,0.8,0.7,1.1
				c1-0.1,2,0,3-0.3c4.3-1.1,8.7-2.2,13-3.4c8.2-2.1,16.4-4.3,24.6-6.3c1.8-0.5,3.1-1.1,3-3.4c-0.1-2.5,0.3-5.1,0.5-7.6
				c1-11.5,1.9-22.9,2.9-34.4c0.2-2.3,0.3-4.6,0.4-7.2c-10.6,1.3-20.9,2.5-31.5,3.8c0-9.6,0-18.8,0-28.4c1.1,0,2.1,0,3.1,0
				c9.2,0,18.4,0,27.6,0C202.9,115.1,204,114.8,205.1,114.7z"/>
      <path fill="#EBEAE7" d="M128.2,96.5c4.4,0,8.9,0.1,13.3,0.1c0.2,0,0.5,0.1,0.7,0.1s0.4,0,0.5,0.1c0,1.2-0.1,2.4-0.1,3.7
				c0,26.1,0,52.3,0,78.4c0,7.8,0,15.5,0.1,23.3c-0.9,0-1.9,0.1-2.8-0.1c-12.6-3.5-25.2-7-37.8-10.5c-2.1-0.6-4.1-1.5-6.2-2.3
				c0-5.9,0-11.9,0.1-17.8c4,1,8.1,1.9,12.1,3c6.3,1.6,12.6,3.4,18.9,5.1c1.9-0.4,1.1-2,1.1-3c0-25.4,0-50.7,0-76.1
				C128.1,99.2,128.1,97.8,128.2,96.5z"/>
      <path fill="#D7B624" d="M142.7,202.2c0-7.8-0.1-15.5-0.1-23.3c0-26.1,0-52.3,0-78.4c0-1.2,0-2.4,0.1-3.7c0.4,0,0.8-0.1,1.1-0.1
				c0,0.6,0.1,1.2,0.1,1.8c0,33.7,0,67.4,0,101.1C144,200.6,144.6,202.1,142.7,202.2z"/>
      <path fill="#ECEFFA" d="M128.2,96.5c0,1.3-0.1,2.6-0.1,4c0,25.4,0,50.7,0,76.1c0,1,0.8,2.6-1.1,3c0-26.1,0-52.2,0-78.4
				c0-1.4,0-2.9,0.1-4.3C127.1,96.8,127.8,96.7,128.2,96.5z"/>
      <path fill="#D6B41D" d="M96,171.5c0,5.9,0,11.9-0.1,17.8c-0.3-0.4-0.9-0.9-0.9-1.3c-0.1-5.1-0.1-10.1,0-15.2
				C95,172.4,95.6,172,96,171.5z"/>
      <path fill="#ECEFFA" d="M142.2,96.7c-0.2,0-0.5-0.1-0.7-0.1C141.7,96.7,141.9,96.7,142.2,96.7z"/>
      <path fill="#FEFDFB" d="M155.1,164.8c0-0.4,0-0.8,0-1.1c0-22.3,0-44.6,0-66.9c0.7-0.2,1.3-0.5,2-0.5c15.6,0,31.1,0,46.7,0
				c1.3,0,2.5,0,2.3,1.8c-0.3,2.9-0.6,5.7-0.8,8.6c-0.1,1.1,0.1,2.2,0.2,3.2c0.1,1.1,0.2,2.1,0.3,3.2c-0.2,0.6-0.5,1.1-0.7,1.7
				c-1.1,0.1-2.2,0.4-3.3,0.4c-9.2,0-18.4,0-27.6,0c-1,0-2,0-3.1,0c0,9.5,0,18.8,0,28.4c10.6-1.3,20.9-2.5,31.5-3.8
				c-0.1,2.6-0.2,4.9-0.4,7.2c-0.9,11.5-1.9,22.9-2.9,34.4c-0.2,2.5-0.6,5.1-0.5,7.6c0.1,2.3-1.2,2.9-3,3.4
				c-8.2,2.1-16.4,4.2-24.6,6.3c-4.3,1.1-8.7,2.3-13,3.4c-1,0.2-2,0.2-3,0.3c0-5.5,0-11.1-0.1-16.6c-0.2-1.8,1.3-1.8,2.4-2.1
				c8.1-2.1,16.1-4.3,24.2-6.4c4.8-1.3,4.9-1.2,5-6.2c0.1-3.5,0-7.1,0-11c-10.5,1.8-21,3.6-31.4,5.5
				C155.2,165.2,155.2,165,155.1,164.8z"/>
      <path fill="#FED325" d="M155.1,96.7c0,22.3,0,44.6,0,66.9c-0.2-0.8-0.7-1.6-0.7-2.5c0-20.7,0-41.3,0-62
				C154.4,98.4,154.9,97.6,155.1,96.7z"/>
      <path fill="#FED52C" d="M205.5,109.9c-0.1-1.1-0.3-2.2-0.2-3.2c0.2-2.9,0.6-5.7,0.8-8.6c0.3,0.2,0.9,0.4,0.9,0.6
				c-0.2,3.6-0.5,7.1-0.8,10.6C206.2,109.5,205.8,109.7,205.5,109.9z"/>
      <path fill="#FED325" d="M155.1,185.6c0,5.5,0,11.1,0.1,16.6c-0.3-0.4-0.7-0.8-0.7-1.1c-0.1-4.7-0.1-9.5,0-14.2
				C154.5,186.4,154.9,186,155.1,185.6z"/>
      <path fill="#FED52C" d="M205.1,114.7c0.2-0.6,0.5-1.1,0.7-1.7C205.6,113.6,205.3,114.1,205.1,114.7z"/>
      <path fill="#FED325"
            d="M155.1,164.8c0.1,0.2,0.1,0.4,0.2,0.6c-0.2-0.1-0.4-0.2-0.5-0.3C154.9,165,155,164.9,155.1,164.8z"/>
		</g>
	</g>
</g>
  <g id="Layer_2" display="none">
	<g display="inline">
		<g>
			<g>
				<path fill="#FDFEFD" d="M152.7,235.2c-29.5,0-58.9,0-88.4,0c-1.5,0-1.8-0.3-1.8-1.8c0.1-58.9,0.1-117.9,0-176.8
					c0-1.5,0.3-1.8,1.8-1.8c58.9,0.1,117.9,0.1,176.8,0c1.5,0,1.8,0.3,1.8,1.8c-0.1,58.9-0.1,117.9,0,176.8c0,1.5-0.3,1.9-1.8,1.8
					C211.6,235.2,182.2,235.2,152.7,235.2z M166.2,66.4c0,0.7,0,1.3,0.1,2c1.2,7.2-1.1,13.3-5.5,18.8c-2.7,3.4-6,6.2-9.2,9.1
					c-5.2,4.7-11,8.8-15.8,14c-7.1,7.7-8.4,16.4-3.7,24.7c2.6,4.5,6.1,8.1,10.3,11.2c2.2,1.6,4.4,3.2,7,4.2c-0.6-0.3-0.3-1-0.7-1.4
					c-3.3-2.8-5.9-6.2-7.8-10c-3-5.9-4.7-11.9-1.8-18.4c1.6-3.5,4.2-6.4,6.9-9c5.6-5.4,11.8-10.2,16.8-16.3c5.1-6.1,8-13,7-21.2
					C169.4,71.3,168.5,68.6,166.2,66.4z M118.2,191.3c-0.6-0.8-1.1-0.5-1.6-0.4c-5.2,0.7-10.3,2.1-15.1,4.2
					c-1.5,0.7-2.9,1.5-4.1,2.7c-1.9,1.9-1.8,3.9,0.2,5.6c1,0.9,2.1,1.5,3.2,2c2.8,1.2,5.6,2.1,8.6,2.7c14.5,3.2,29.3,4.1,44.1,3.6
					c10.1-0.3,20.1-1.3,29.9-3.7c4.1-1,8.2-2.1,11.6-4.8c1.6-1.3,2.8-2.8,2-5c-0.6-1.7-1.5-1.8-2.6-0.4c-0.4,0.5-0.9,1-1.4,1.4
					c-2.8,2.2-6.1,3.3-9.4,4.1c-20.5,4.7-41.2,5.1-61.9,1.3c-4.3-0.8-8.6-1.7-12.4-3.9c-2.4-1.5-2.6-3.1-0.6-5.1
					c0.8-0.8,1.8-1.3,2.8-1.9C113.5,192.7,115.8,192,118.2,191.3z M157.6,154.7c2.2,0,3.4-1.8,4.9-3c4.2-3.5,7.9-9.5,4-16.1
					c-1.6-2.8-3.1-5.6-4.6-8.5c-2.2-4.3-1.9-8.6,0.4-12.7c3.8-6.7,9.7-11.3,16.4-14.8c0.7-0.4,1.4-0.5,1.6-1.5
					c-0.7,0.1-1.3,0.1-1.9,0.3c-7.9,3.1-15.5,6.8-21.4,13.2c-6.1,6.6-7.1,14.3-2.8,21.9c1.4,2.5,3.1,4.8,4.4,7.3
					c2,3.9,2.6,7.8,0.1,11.8C158.1,153.3,157.8,154.1,157.6,154.7z M134.6,150.4c-1.2,0-1.9-0.1-2.5,0c-4.6,0.8-9.1,1.5-13.7,2.4
					c-2.1,0.4-4.2,1.1-6.1,2.3c-2.5,1.6-2.6,3.2,0,4.7c1.9,1.1,3.9,1.9,6.1,2.4c19.7,4.5,39.4,4.3,59.2,0.3c2.6-0.5,5.4-1.1,8.2-2.7
					c-2.3-0.7-3.5-2.7-6-2.2c-15.2,3.3-30.6,4.1-46.1,2.3c-3.8-0.4-7.6-0.9-11.2-2.3c-0.8-0.3-2-0.5-1.8-1.7c0.2-1,0.9-1.8,2.1-2.1
					c1.8-0.4,3.6-0.9,5.4-1.5C130.1,151.5,132.3,151.7,134.6,150.4z M127.9,168.6c-3.2,0.5-6.2,1.1-8.9,2.5
					c-2.6,1.4-2.6,3.2-0.3,4.8c2.3,1.6,4.9,2.2,7.5,2.8c13,2.9,26,3,39.1,1.1c3.9-0.5,7.7-1.4,11.4-2.7c0.8-0.3,1.6-0.6,1.2-1.7
					c-0.3-0.9-4.7-2.8-5.7-2.6c-8.6,2.1-17.3,2.8-26.1,2.6c-5.6-0.1-11.3-0.5-16.6-2.3C126.4,172.2,126.2,171.4,127.9,168.6z
					 M172.3,193.2c-2-1.2-3.6-2.1-5.2-3.1c-1.2-0.8-2.3-1-3.8-0.6c-4.2,1-8.6,1.4-12.9,1.4c-5.4,0-10.8,0-16-1.8
					c-1.1-0.4-2.7-0.7-1.9-2.6c0.4-0.9-0.5-0.5-0.7-0.5c-2.2,0.5-4.4,1-6.3,2.2c-2.2,1.4-2.2,3.3,0,4.9c1.6,1.1,3.4,1.8,5.3,2.3
					c9.5,2.6,19.1,2.8,28.8,1.5C163.8,196.5,168.1,195.6,172.3,193.2z M115,215.6c8.6,2.4,16.9,3.5,25.3,4
					c15.4,0.9,30.8,0.1,45.8-3.9c5.3-1.4,10.5-3.1,14.8-6.8c1.4-1.2,2.6-2.6,2.7-5.1c-3.1,2.7-6.2,4.6-9.7,6
					c-8.3,3.4-16.9,5.1-25.7,6.1c-16.2,1.8-32.4,1.8-48.5-0.4C118.3,215.3,116.9,214.6,115,215.6z M189.1,150.5c1,0,1.5,0,2,0
					c6,0.2,9.7,4.5,8.9,10.4c-0.5,4.1-2.7,7.3-5.6,10c-2.8,2.6-5.8,4.9-9.3,6.6c-0.4,0.2-1.1,0.4-0.8,1.1c0.2,0.5,0.8,0.4,1.2,0.2
					c1.3-0.4,2.6-0.8,3.8-1.3c5.8-2.3,11.2-5.1,15.2-10c4.5-5.6,3.7-12.5-1.6-16.2C199.1,148.6,192.6,148.1,189.1,150.5z"/>
        <path fill="#EE941C" d="M166.2,66.4c2.3,2.1,3.3,4.9,3.7,7.8c1,8.1-1.9,15-7,21.2c-5,6-11.2,10.9-16.8,16.3
					c-2.8,2.7-5.3,5.5-6.9,9c-2.9,6.4-1.2,12.5,1.8,18.4c2,3.8,4.5,7.2,7.8,10c0.5,0.4,0.2,1.1,0.7,1.4c-2.6-1-4.8-2.6-7-4.2
					c-4.2-3-7.7-6.7-10.3-11.2c-4.8-8.4-3.4-17.1,3.7-24.7c4.8-5.2,10.6-9.3,15.8-14c3.2-2.9,6.5-5.7,9.2-9.1
					c4.4-5.5,6.7-11.6,5.5-18.8C166.2,67.8,166.2,67.1,166.2,66.4z"/>
        <path fill="#0C758D" d="M118.2,191.3c-2.4,0.8-4.7,1.5-6.8,2.6c-1,0.6-2,1.1-2.8,1.9c-2.1,2-1.9,3.6,0.6,5.1
					c3.8,2.3,8.1,3.1,12.4,3.9c20.7,3.7,41.4,3.4,61.9-1.3c3.4-0.8,6.6-2,9.4-4.1c0.5-0.4,1-0.9,1.4-1.4c1.1-1.4,1.9-1.3,2.6,0.4
					c0.9,2.2-0.3,3.8-2,5c-3.4,2.6-7.5,3.8-11.6,4.8c-9.8,2.4-19.8,3.4-29.9,3.7c-14.8,0.4-29.6-0.5-44.1-3.6
					c-2.9-0.6-5.8-1.5-8.6-2.7c-1.2-0.5-2.3-1.2-3.2-2c-2-1.8-2-3.7-0.2-5.6c1.2-1.2,2.6-2.1,4.1-2.7c4.8-2.2,9.9-3.5,15.1-4.2
					C117.1,190.8,117.6,190.5,118.2,191.3z"/>
        <path fill="#EE941C" d="M157.6,154.7c0.3-0.6,0.5-1.4,1-2.2c2.5-4,1.9-7.9-0.1-11.8c-1.3-2.5-3-4.8-4.4-7.3
					c-4.3-7.6-3.3-15.3,2.8-21.9c5.9-6.4,13.5-10.1,21.4-13.2c0.5-0.2,1.2-0.2,1.9-0.3c-0.2,1-0.9,1.1-1.6,1.5
					c-6.7,3.6-12.6,8.1-16.4,14.8c-2.3,4.1-2.6,8.4-0.4,12.7c1.5,2.9,3,5.7,4.6,8.5c3.9,6.6,0.2,12.6-4,16.1
					C161,152.9,159.8,154.7,157.6,154.7z"/>
        <path fill="#0C758D" d="M134.6,150.4c-2.3,1.4-4.5,1.1-6.4,1.8c-1.7,0.6-3.6,1.1-5.4,1.5c-1.2,0.3-1.9,1-2.1,2.1
					c-0.2,1.2,1,1.4,1.8,1.7c3.6,1.4,7.4,1.9,11.2,2.3c15.5,1.8,30.9,1,46.1-2.3c2.5-0.5,3.7,1.4,6,2.2c-2.8,1.6-5.5,2.2-8.2,2.7
					c-19.7,3.9-39.5,4.2-59.2-0.3c-2.1-0.5-4.2-1.2-6.1-2.4c-2.6-1.5-2.5-3.1,0-4.7c1.9-1.2,4-1.9,6.1-2.3c4.5-0.9,9.1-1.6,13.7-2.4
					C132.7,150.3,133.4,150.4,134.6,150.4z"/>
        <path fill="#0C758D" d="M127.9,168.6c-1.7,2.8-1.4,3.5,1.6,4.6c5.4,1.8,11,2.2,16.6,2.3c8.8,0.2,17.5-0.5,26.1-2.6
					c1-0.3,5.4,1.7,5.7,2.6c0.4,1.1-0.4,1.4-1.2,1.7c-3.7,1.3-7.5,2.1-11.4,2.7c-13.1,1.9-26.2,1.8-39.1-1.1
					c-2.6-0.6-5.3-1.3-7.5-2.8c-2.4-1.6-2.3-3.4,0.3-4.8C121.7,169.7,124.7,169.1,127.9,168.6z"/>
        <path fill="#0C758D" d="M172.3,193.2c-4.3,2.3-8.5,3.3-12.8,3.8c-9.7,1.3-19.3,1.1-28.8-1.5c-1.9-0.5-3.7-1.2-5.3-2.3
					c-2.2-1.5-2.2-3.5,0-4.9c1.9-1.2,4.1-1.7,6.3-2.2c0.2-0.1,1.1-0.4,0.7,0.5c-0.7,1.9,0.8,2.2,1.9,2.6c5.2,1.8,10.6,1.8,16,1.8
					c4.4,0,8.7-0.5,12.9-1.4c1.5-0.3,2.6-0.1,3.8,0.6C168.7,191.2,170.4,192.1,172.3,193.2z"/>
        <path fill="#0C758D" d="M115,215.6c1.8-1,3.2-0.3,4.6-0.1c16.2,2.2,32.3,2.2,48.5,0.4c8.8-1,17.5-2.7,25.7-6.1
					c3.5-1.4,6.6-3.4,9.7-6c0,2.5-1.2,3.9-2.7,5.1c-4.3,3.7-9.5,5.4-14.8,6.8c-15,3.9-30.3,4.7-45.8,3.9
					C131.9,219.1,123.6,218,115,215.6z"/>
        <path fill="#0C758D" d="M189.1,150.5c3.5-2.4,10-1.9,13.8,0.7c5.4,3.7,6.1,10.7,1.6,16.2c-4,5-9.5,7.7-15.2,10
					c-1.2,0.5-2.5,0.9-3.8,1.3c-0.4,0.1-1,0.2-1.2-0.2c-0.3-0.7,0.4-0.9,0.8-1.1c3.5-1.7,6.5-4,9.3-6.6c2.9-2.7,5.1-5.9,5.6-10
					c0.8-6-2.9-10.3-8.9-10.4C190.6,150.5,190.1,150.5,189.1,150.5z"/>
			</g>
		</g>
	</g>
</g>
  <g id="Layer_3" display="none">
	<g id="oHJkOh.tif" display="inline">
		<g>
			<g>
				<path fill="#FEFEFD" d="M48,143.1c0-31.5,0-63.1,0-94.6c0-1.7,0.3-2,2-2c64.9,0.1,129.7,0.1,194.6,0c1.7,0,2,0.3,2,2
					c-0.1,65-0.1,130.1,0,195.1c0,1.7-0.3,2-2,2c-64.9-0.1-129.7-0.1-194.6,0c-1.7,0-2-0.3-2-2c0.1-32,0-64.1,0-96.1
					c1,2.5,0.6,5.1,0.9,7.6c1.3,10.2,3.7,20.1,9.9,28.6c3.3,4.6,7.4,8.3,13.3,8.6c7.3,0.3,14.5,0.2,21.8,0.2c1.6,0,1.2-1.2,1.2-2.1
					c0.1-7,0.5-14.1,0.2-21.1c-0.4-9.4,4.2-15.9,11.3-21.3c5.3-4,11.5-5.3,18-5.3c14.9-0.1,29.7-0.1,44.6-0.2c3.2,0,6.3-0.5,9.2-2
					c10.3-5.6,15.4-14.3,15.5-25.9C194,100.4,194,86.2,194,72c0-3.2-0.9-6.1-2.8-8.7c-3.8-5.5-9.4-8.8-15.4-11.2
					c-13.5-5.4-27.6-6.2-41.9-4.2c-8.9,1.3-17.4,3.9-24.8,9.1c-6.1,4.3-9.5,9.9-9.1,17.6c0.2,5.1,0.2,10.3,0,15.4
					c-0.1,2.3,0.6,2.8,2.9,2.8c13.8-0.1,27.6-0.1,41.4,0c0.8,0,1.9-0.4,2.3,0.3c0.7,1.5,0.5,3.2,0.2,4.8c-0.2,1.2-1.7,0.6-2.5,0.6
					c-22.7,0-45.4,0.2-68.1-0.1c-7.8-0.1-13.3,3.1-17.6,9.2c-6,8.5-8.4,18.3-9.7,28.4C48.7,138.4,49,140.9,48,143.1z M184.8,192.5
					c11.6,0,23.2,0,34.8,0c5,0,9.2-1.7,12.8-5.2c4-4,6.7-8.8,8.7-14.1c5-13.5,5.9-27.3,3.7-41.4c-1.4-8.9-4-17.5-9.5-24.9
					c-3.6-4.8-8.1-8.4-14.5-8.4c-6.5-0.1-12.9,0-19.4-0.1c-1.7,0-2,0.6-2,2.1c0,5.1,0.1,10.3-0.1,15.4c-0.1,3.4,0.1,6.8-1.2,10.2
					c-2.7,7.3-7.7,12.8-13.8,17.4c-5.2,3.9-11.2,4.8-17.4,4.9c-14.5,0.1-29.1,0.1-43.6,0c-6.3-0.1-11.5,2.2-16,6.3
					c-3.8,3.4-6.8,7.4-6.9,12.8c-0.2,16.8-0.2,33.6-0.3,50.5c0,5.2,1.8,9.5,5.5,13.1c3.7,3.7,8.2,6.2,13,8.1
					c15.2,5.8,30.9,6.4,46.7,3.1c7.8-1.6,15.2-4.4,21.5-9.5c4.8-3.9,7.6-8.8,7.3-15.3c-0.2-5.5-0.1-10.9,0-16.4
					c0-1.9-0.5-2.5-2.4-2.5c-14,0.1-28.1,0-42.1,0.1c-2.5,0-2.5-1.2-2.5-3c0.1-1.6-0.5-3.3,2.4-3.3
					C161.3,192.6,173.1,192.5,184.8,192.5z"/>
        <path fill="#377EEF" d="M48,143.1c1-2.3,0.6-4.7,0.9-7.1c1.3-10.2,3.7-19.9,9.7-28.4c4.3-6.1,9.8-9.2,17.6-9.2
					c22.7,0.2,45.4,0.1,68.1,0.1c0.9,0,2.3,0.6,2.5-0.6c0.3-1.6,0.5-3.3-0.2-4.8c-0.3-0.7-1.5-0.3-2.3-0.3c-13.8,0-27.6-0.1-41.4,0
					c-2.2,0-2.9-0.5-2.9-2.8c0.2-5.1,0.2-10.3,0-15.4c-0.4-7.7,3.1-13.3,9.1-17.6c7.4-5.3,15.9-7.8,24.8-9.1
					c14.3-2,28.3-1.2,41.9,4.2c6.1,2.4,11.6,5.7,15.4,11.2c1.8,2.6,2.8,5.5,2.8,8.7c-0.1,14.2,0,28.4-0.1,42.6
					c-0.1,11.6-5.2,20.3-15.5,25.9c-2.9,1.6-6,2-9.2,2c-14.9,0.1-29.7,0.1-44.6,0.2c-6.5,0-12.6,1.3-18,5.3
					c-7.1,5.3-11.7,11.8-11.3,21.3c0.3,7-0.1,14-0.2,21.1c0,0.9,0.4,2.1-1.2,2.1c-7.3-0.1-14.5,0.1-21.8-0.2c-6-0.3-10-4-13.3-8.6
					c-6.2-8.5-8.6-18.3-9.9-28.6c-0.3-2.5,0-5.1-0.9-7.6C48,146.1,48,144.6,48,143.1z M121,63.2c-5,0-9,4.1-9,9c0,5,4.2,9.1,9,9.1
					c5,0,9-4.1,9-9.1S126,63.2,121,63.2z"/>
        <path fill="#F7C53E" d="M184.8,192.5c-11.8,0-23.5,0.1-35.3-0.1c-2.9,0-2.3,1.6-2.4,3.3c-0.1,1.8-0.1,3,2.5,3
					c14-0.1,28.1,0,42.1-0.1c2,0,2.5,0.6,2.4,2.5c-0.1,5.5-0.2,10.9,0,16.4c0.3,6.5-2.5,11.3-7.3,15.3c-6.3,5.1-13.7,7.9-21.5,9.5
					c-15.8,3.3-31.5,2.7-46.7-3.1c-4.8-1.9-9.3-4.4-13-8.1c-3.7-3.6-5.6-8-5.5-13.1c0.1-16.8,0.2-33.6,0.3-50.5
					c0.1-5.4,3.1-9.4,6.9-12.8c4.5-4.1,9.7-6.3,16-6.3c14.5,0.2,29.1,0.2,43.6,0c6.2-0.1,12.2-1,17.4-4.9
					c6.1-4.6,11.1-10.1,13.8-17.4c1.2-3.3,1.1-6.8,1.2-10.2c0.2-5.1,0.2-10.3,0.1-15.4c0-1.5,0.3-2.1,2-2.1c6.5,0.1,12.9,0,19.4,0.1
					c6.4,0.1,10.9,3.6,14.5,8.4c5.5,7.4,8.1,15.9,9.5,24.9c2.2,14.1,1.3,28-3.7,41.4c-2,5.2-4.7,10.1-8.7,14.1
					c-3.5,3.5-7.8,5.2-12.8,5.2C208,192.5,196.4,192.5,184.8,192.5z M173.4,209.8c-5,0-9.1,4.1-9.1,9c0,4.8,4.3,9.1,9.2,9
					c4.8-0.1,8.8-4.1,8.9-9C182.4,213.8,178.5,209.8,173.4,209.8z"/>
        <path fill="#FEFEFD" d="M121,63.2c5,0,9,4,9,9s-4,9-9,9.1c-4.9,0-9-4.1-9-9.1C112,67.3,116.1,63.2,121,63.2z"/>
        <path fill="#FEFEFD"
              d="M173.4,209.8c5.1,0,9,4,9,9c0,4.9-4,8.9-8.9,9s-9.2-4.2-9.2-9C164.4,213.8,168.5,209.8,173.4,209.8z"/>
			</g>
		</g>
	</g>
</g>
  <g id="Layer_4" display="none">
	<g id="rW8Lse.tif" display="inline">
		<g>
			<path fill="#FDFDFD" d="M80.6,144.5c0-32.3,0-64.6,0-96.9c0-1.3,0.3-1.6,1.6-1.6c45.7,0,91.3,0,137,0c1.3,0,1.6,0.3,1.6,1.6
				c0,64.7,0,129.4,0,194.2c0,1.3-0.3,1.6-1.6,1.6c-45.7,0-91.3,0-137,0c-1.3,0-1.6-0.3-1.6-1.6C80.6,209.3,80.6,176.9,80.6,144.5z
				 M150.5,85c-22.4,0-44.8,0-67.1,0c-2.9,0-2.6-0.3-2.4,2.4c0.9,10.5,1.8,21,2.8,31.5c1.1,12.3,2.2,24.7,3.3,37
				c0.9,10.6,1.9,21.2,2.8,31.9c1.1,12.5,2.3,24.9,3.3,37.4c0.1,1.4,0.5,2.1,2,2.5c18,4.9,35.9,9.9,53.8,14.9c0.9,0.3,1.7,0.2,2.6,0
				c5.6-1.6,11.3-3.1,17-4.7c12.4-3.4,24.7-6.9,37.1-10.3c1.4-0.4,1.9-0.9,1.9-2.3c0-1.7,0.2-3.4,0.4-5.2c1-10.8,1.9-21.6,2.9-32.4
				c1.1-12,2.1-24,3.2-36.1c1-10.9,1.9-21.8,2.9-32.6c0.9-10.6,1.9-21.3,2.9-31.9c0.2-1.8-0.4-2.2-2.1-2.2
				C195.4,85,172.9,85,150.5,85z M166.7,55.6c-0.7-1.1-1.2-2-1.7-2.8c-1.3-2.1-2.2-5-4.1-6.1c-1.9-1.1-4.9-0.3-7.4-0.3
				c-0.2,0-0.4,0-0.6,0c-0.9-0.1-1.2,0.2-1.2,1.2c0,8.1,0,16.1,0,24.2c0,1.1,0.5,1.3,1.4,1.2c2-0.1,4-0.1,5.9,0
				c1.3,0.1,1.5-0.4,1.4-1.5c-0.1-3.6,0-7.2,0-10.8c1.9,2.4,3.6,4.8,5.1,7.3c0.7,1.2,1.1,1.4,2,0.1c1.5-2.5,3.2-5,4.8-7.4
				c0.1,0,0.2,0.1,0.4,0.1c0,0.6,0,1.2,0,1.8c0,3,0.1,6,0,9c0,1.2,0.3,1.5,1.5,1.5c2-0.1,4-0.1,5.9,0c1,0,1.4-0.2,1.4-1.3
				c-0.1-8,0-16,0-24c0-1-0.2-1.3-1.3-1.3c-2.2,0.1-4.5,0.1-6.7,0c-1.1,0-1.6,0.4-2.1,1.2C170,50.2,168.4,52.8,166.7,55.6z
				 M119.7,59.8c0-4,0-8,0-12.1c0-1-0.2-1.3-1.3-1.3c-2.1,0.1-4.2,0.1-6.3,0c-1.1,0-1.5,0.2-1.4,1.4c0.1,2,0,4.1,0,6.1
				c0,1-0.3,1.3-1.3,1.3c-1.8-0.1-3.6-0.1-5.4,0c-1.1,0.1-1.4-0.3-1.4-1.4c0.1-2,0-4.1,0-6.1c0-1-0.3-1.3-1.3-1.3
				c-2.2,0.1-4.3,0.1-6.5,0c-0.9,0-1.2,0.3-1.2,1.2c0,8,0,16.1,0,24.1c0,1.1,0.4,1.3,1.4,1.2c2,0,4.1-0.1,6.1,0
				c1.2,0.1,1.6-0.2,1.5-1.5c-0.1-2,0.1-4-0.1-5.9c-0.1-1.3,0.4-1.6,1.6-1.5c1.6,0.1,3.2,0.1,4.8,0c1.3-0.1,1.8,0.2,1.7,1.6
				c-0.1,2,0,4-0.1,5.9c0,1.1,0.4,1.4,1.4,1.4c2-0.1,4.1-0.1,6.1,0c1.2,0.1,1.5-0.4,1.5-1.5C119.6,67.6,119.7,63.7,119.7,59.8z
				 M135.8,46.4c-3.7,0-7.4,0-11.1,0c-1,0-1.4,0.2-1.3,1.3c0.1,2.2,0.1,4.3,0,6.5c0,0.8,0.2,1.1,1.1,1.1c1.7-0.1,3.5,0.1,5.2,0
				c1.3-0.1,1.6,0.3,1.6,1.6c-0.1,4.9,0,9.7-0.1,14.6c0,1.4,0.4,1.7,1.7,1.6c1.9-0.1,3.8-0.1,5.7,0c1.3,0.1,1.6-0.3,1.6-1.6
				c-0.1-4.7,0-9.5-0.1-14.2c0-1.5,0.2-2.2,1.9-2c1.4,0.2,2.8-0.1,4.2,0.1c1.5,0.2,1.8-0.5,1.7-1.8c-0.1-1.8-0.1-3.6,0-5.4
				c0.1-1.3-0.3-1.8-1.7-1.7C142.8,46.5,139.3,46.4,135.8,46.4z M185.9,59.6c0,4,0,8.1,0,12.1c0,0.9,0.2,1.4,1.3,1.3
				c6.3,0,12.7,0,19,0c1,0,1.3-0.3,1.3-1.3c-0.1-2-0.1-4,0-5.9c0.1-1.3-0.3-1.8-1.7-1.7c-3.1,0.1-6.3,0-9.4,0.1
				c-1.2,0-1.5-0.2-1.5-1.5c0.1-5,0-10,0.1-15c0-1-0.2-1.3-1.2-1.3c-2.1,0.1-4.2,0.1-6.3,0c-1.2-0.1-1.5,0.3-1.5,1.5
				C186,51.8,185.9,55.7,185.9,59.6z"/>
      <path fill="#E34D27" d="M150.5,85c22.4,0,44.9,0,67.3,0c1.7,0,2.3,0.3,2.1,2.2c-1,10.6-1.9,21.2-2.9,31.9
				c-1,10.9-1.9,21.8-2.9,32.6c-1.1,12-2.1,24-3.2,36.1c-1,10.8-1.9,21.6-2.9,32.4c-0.2,1.7-0.4,3.4-0.4,5.2c0,1.4-0.6,2-1.9,2.3
				c-12.4,3.4-24.7,6.8-37.1,10.3c-5.7,1.6-11.3,3.1-17,4.7c-0.9,0.3-1.7,0.3-2.6,0c-17.9-5-35.9-10-53.8-14.9
				c-1.5-0.4-1.8-1.1-2-2.5c-1.1-12.5-2.2-24.9-3.3-37.4C89,177.3,88,166.7,87.1,156c-1.1-12.3-2.2-24.7-3.3-37
				c-0.9-10.5-1.9-21-2.8-31.5c-0.2-2.7-0.6-2.4,2.4-2.4C105.7,85,128.1,85,150.5,85z M150.2,114L150.2,114c-13.9,0-27.9,0.1-41.8,0
				c-1.3,0-1.8,0.2-1.6,1.7c1.5,16.3,3,32.7,4.4,49c0.2,1.8,0.7,2.1,2.4,2.1c18.7,0,37.5,0,56.2,0c1.5,0,2,0.3,1.8,1.9
				c-0.6,6.4-1.2,12.8-1.7,19.3c-0.1,1-0.5,1.4-1.4,1.7c-5.8,1.5-11.6,3.1-17.4,4.7c-0.7,0.2-1.2,0.1-1.9-0.1
				c-5.6-1.5-11.2-3.1-16.8-4.5c-1.3-0.3-1.5-0.9-1.6-2.1c-0.2-3.6-0.6-7.3-0.9-10.9c-0.1-1-0.4-1.4-1.5-1.4
				c-4.9,0.1-9.8,0.1-14.8,0c-1.1,0-1.4,0.2-1.3,1.4c0.8,8.1,1.5,16.3,2.1,24.4c0.1,1.2,0.5,1.8,1.7,2.1c11,3,21.9,6,32.8,9.1
				c0.8,0.2,1.6,0.4,2.4,0.1c11.2-3.1,22.4-6.2,33.6-9.3c0.9-0.2,1.2-0.6,1.3-1.6c0.2-2.9,0.5-5.7,0.7-8.6
				c1.3-13.9,2.5-27.9,3.8-41.8c0.2-1.9-0.4-2.1-2.1-2.1c-19.8,0.1-39.6,0-59.5,0.1c-1.4,0-2-0.3-2.1-1.8c-0.3-4.7-0.8-9.4-1.3-14.1
				c-0.2-1.6,0.3-1.9,1.8-1.9c5.4,0.1,10.7,0,16.1,0c15.6,0,31.2,0,46.8,0.1c1.6,0,2-0.4,2.1-2c0.3-4.7,0.7-9.4,1.3-14.1
				c0.1-1.3-0.2-1.5-1.4-1.5C178.5,114,164.3,114,150.2,114z"/>
      <path fill="#030303" d="M166.7,55.6c1.7-2.8,3.3-5.4,4.8-8c0.5-0.9,1-1.3,2.1-1.2c2.2,0.1,4.5,0.1,6.7,0c1,0,1.3,0.3,1.3,1.3
				c0,8,0,16,0,24c0,1.2-0.4,1.4-1.4,1.3c-2-0.1-4-0.1-5.9,0c-1.2,0.1-1.5-0.3-1.5-1.5c0.1-3,0-6,0-9c0-0.6,0-1.2,0-1.8
				c-0.1,0-0.2-0.1-0.4-0.1c-1.6,2.5-3.3,4.9-4.8,7.4c-0.8,1.4-1.2,1.1-2-0.1c-1.5-2.5-3.2-5-5.1-7.3c0,3.6,0,7.2,0,10.8
				c0,1.1-0.2,1.6-1.4,1.5c-2-0.1-4-0.1-5.9,0c-0.9,0-1.4-0.1-1.4-1.2c0-8.1,0-16.1,0-24.2c0-0.9,0.3-1.3,1.2-1.2c0.2,0,0.4,0,0.6,0
				c2.5,0,5.4-0.8,7.4,0.3c1.9,1.1,2.8,4,4.1,6.1C165.5,53.6,166,54.5,166.7,55.6z"/>
      <path fill="#030303" d="M119.7,59.8c0,3.9,0,7.8,0,11.7c0,1.1-0.2,1.6-1.5,1.5c-2-0.1-4.1-0.1-6.1,0c-1.1,0-1.5-0.2-1.4-1.4
				c0.1-2-0.1-4,0.1-5.9c0.1-1.4-0.4-1.7-1.7-1.6c-1.6,0.1-3.2,0.1-4.8,0c-1.2-0.1-1.7,0.2-1.6,1.5c0.1,2,0,4,0.1,5.9
				c0.1,1.2-0.4,1.5-1.5,1.5c-2-0.1-4.1-0.1-6.1,0c-0.9,0-1.4-0.1-1.4-1.2c0-8,0-16.1,0-24.1c0-0.9,0.2-1.2,1.2-1.2
				c2.2,0.1,4.3,0.1,6.5,0c1,0,1.4,0.2,1.3,1.3c-0.1,2,0,4.1,0,6.1c0,1.1,0.3,1.5,1.4,1.4c1.8-0.1,3.6-0.1,5.4,0
				c1,0,1.3-0.3,1.3-1.3c-0.1-2,0-4.1,0-6.1c0-1.1,0.4-1.4,1.4-1.4c2.1,0.1,4.2,0.1,6.3,0c1,0,1.3,0.3,1.3,1.3
				C119.6,51.7,119.7,55.8,119.7,59.8z"/>
      <path fill="#030303" d="M135.8,46.4c3.5,0,7,0.1,10.5,0c1.4,0,1.7,0.4,1.7,1.7c-0.1,1.8-0.1,3.6,0,5.4c0.1,1.4-0.2,2-1.7,1.8
				c-1.4-0.2-2.8,0.1-4.2-0.1c-1.7-0.2-2,0.5-1.9,2c0.1,4.7,0,9.5,0.1,14.2c0,1.2-0.3,1.7-1.6,1.6c-1.9-0.1-3.8-0.1-5.7,0
				c-1.3,0.1-1.7-0.2-1.7-1.6c0.1-4.9,0-9.7,0.1-14.6c0-1.3-0.3-1.7-1.6-1.6c-1.7,0.1-3.4,0-5.2,0c-0.8,0-1.1-0.3-1.1-1.1
				c0-2.2,0.1-4.3,0-6.5c0-1.1,0.4-1.3,1.3-1.3C128.4,46.5,132.1,46.4,135.8,46.4z"/>
      <path fill="#030303" d="M185.9,59.6c0-3.9,0-7.8,0-11.7c0-1.2,0.3-1.5,1.5-1.5c2.1,0.1,4.2,0.1,6.3,0c1.1,0,1.3,0.3,1.2,1.3
				c0,5,0,10-0.1,15c0,1.2,0.3,1.5,1.5,1.5c3.1-0.1,6.3,0,9.4-0.1c1.4,0,1.7,0.4,1.7,1.7c-0.1,2-0.1,4,0,5.9c0,1-0.3,1.3-1.3,1.3
				c-6.3,0-12.7,0-19,0c-1.1,0-1.3-0.4-1.3-1.3C185.9,67.6,185.9,63.6,185.9,59.6z"/>
      <path fill="#FDFDFD" d="M150.2,114c14.1,0,28.3,0,42.4,0c1.2,0,1.5,0.2,1.4,1.5c-0.5,4.7-1,9.4-1.3,14.1c-0.1,1.6-0.5,2-2.1,2
				c-15.6-0.1-31.2-0.1-46.8-0.1c-5.4,0-10.7,0.1-16.1,0c-1.5,0-2,0.3-1.8,1.9c0.5,4.7,1,9.4,1.3,14.1c0.1,1.5,0.6,1.8,2.1,1.8
				c19.8-0.1,39.6,0,59.5-0.1c1.6,0,2.3,0.2,2.1,2.1c-1.4,13.9-2.6,27.9-3.8,41.8c-0.3,2.9-0.6,5.7-0.7,8.6
				c-0.1,0.9-0.4,1.3-1.3,1.6c-11.2,3.1-22.4,6.2-33.6,9.3c-0.8,0.2-1.6,0.1-2.4-0.1c-10.9-3-21.9-6.1-32.8-9.1
				c-1.2-0.3-1.6-0.9-1.7-2.1c-0.7-8.1-1.4-16.3-2.1-24.4c-0.1-1.2,0.2-1.4,1.3-1.4c4.9,0,9.8,0.1,14.8,0c1.1,0,1.4,0.4,1.5,1.4
				c0.3,3.6,0.7,7.2,0.9,10.9c0.1,1.2,0.4,1.8,1.6,2.1c5.6,1.4,11.2,3,16.8,4.5c0.6,0.2,1.2,0.3,1.9,0.1c5.8-1.6,11.6-3.2,17.4-4.7
				c1-0.3,1.4-0.7,1.4-1.7c0.5-6.4,1-12.9,1.7-19.3c0.2-1.6-0.4-1.9-1.8-1.9c-18.7,0-37.5,0-56.2,0c-1.6,0-2.2-0.3-2.4-2.1
				c-1.4-16.4-2.9-32.7-4.4-49c-0.1-1.5,0.3-1.7,1.6-1.7C122.3,114.1,136.3,114.1,150.2,114L150.2,114z"/>
		</g>
	</g>
</g>
  <g id="Layer_5">
	<g id="USzh1B.tif">
		<g>
			<g>
				<path fill="#0270B9" d="M75.9,71.7c0-1.2,0-2.4,0-3.7c0.7-0.1,1.5-0.2,2.2-0.2c48.1,0,96.2,0,144.3,0c0.4,0,0.8,0,1.2,0
					c0.9,0,1.2,0.3,1.1,1.2c-0.7,7.4-1.3,14.9-2,22.3c-1.3,14.5-2.6,29-3.9,43.5c-1.2,12.9-2.3,25.9-3.4,38.8
					c-1.3,14.6-2.7,29.2-3.9,43.9c-0.1,1.5-0.6,2-2,2.4c-14.9,4.1-29.8,8.3-44.7,12.5c-4.6,1.3-9.3,2.3-13.7,4.1c-0.7,0-1.4,0-2,0
					c-0.4-0.7-1.1-0.7-1.7-0.8c-18.7-5.3-37.5-10.6-56.2-15.9c-1.1-0.3-1.6-0.7-1.7-2c-0.3-4.9-0.8-9.9-1.3-14.8
					c-1.2-13-2.3-26-3.5-39c-1.2-12.9-2.3-25.9-3.4-38.8c-1.3-14.7-2.6-29.4-4-44.1C76.8,78,77,74.8,75.9,71.7z M148.3,115.1
					c0,0.2,0,0.4,0,0.6c-0.6,0.3-1.2,0.6-1.8,0.8c-13.8,5.9-27.5,11.9-41.3,17.8c-1.5,0.7-2,1.4-1.8,3.1c0.6,4.8,1.1,9.6,1.4,14.4
					c0.1,1.8,0.6,2.3,2.5,2.3c21.6-0.5,43.3-0.3,64.9-0.1c1,0,2.2-0.3,2,1.5c-0.5,7-1,14-1.4,21c-0.1,1.3-0.6,1.8-1.9,2.2
					c-6.3,1.8-12.5,3.8-18.7,5.5c-1,0.3-1.7,1.2-2.8,0.9c-7.3-1.4-14.5-2.9-21.8-4.2c-1.3-0.2-1.7-0.9-1.8-2.2
					c-0.3-3.9-0.8-7.7-1-11.6c-0.1-1.5-0.6-2-2.1-2c-4.8,0.1-9.7,0.1-14.5,0c-1.6,0-1.9,0.5-1.8,2c0.5,8.3,1.2,16.7,2.4,24.9
					c0.2,1.3,0.5,1.8,1.8,2.1c12.4,3.1,24.7,6.3,37.1,9.5c1.6,0.4,3.2,0.4,4.8,0c12.2-3.2,24.4-6.5,36.6-9.6c2-0.5,2.5-1.4,2.7-3.3
					c0.5-6.8,1.2-13.7,1.8-20.5c0.9-10.9,1.8-21.8,2.8-32.7c0.2-1.7-0.4-2.2-2.1-2.1c-11.8,0.1-23.5,0.1-35.3,0.1
					c-0.7,0-1.4,0-2.1,0c0.6-0.6,1.2-0.8,1.8-1.1c12.3-5.4,24.6-10.8,36.9-16.2c1.5-0.6,2.4-1.3,2.4-3.2c0.2-4.8,0.8-9.6,1.2-14.4
					c0.3-3,0.4-3-2.5-3c-30.3,0-60.7,0.1-91,0.1c-1.7,0-3.4,0.1-5.1,0c-1.1-0.1-1.3,0.3-1.2,1.4c0.4,4.6,1,9.2,1.5,13.8
					c0.2,1.6,0.7,2,2.2,2c13.1,0,26.3,0.1,39.4,0.2C144.6,115.2,146.5,115.1,148.3,115.1z"/>
        <path fill="#FBFCFC" d="M223.5,67.9c-0.4,0-97.4,0-145.5,0C77.3,67.9,224.4,67.9,223.5,67.9z"/>
        <path fill="#FBFCFC" d="M148.3,115.1c-1.9,0-3.8,0-5.6,0c-13.1-0.1-26.3-0.2-39.4-0.2c-1.5,0-2-0.4-2.2-2
					c-0.6-4.6-1.1-9.2-1.5-13.8c-0.1-1.1,0.1-1.4,1.2-1.4c1.7,0.1,3.4,0,5.1,0c30.3,0,60.7-0.1,91-0.1c2.9,0,2.8,0,2.5,3
					c-0.5,4.8-1,9.6-1.2,14.4c-0.1,1.9-1,2.5-2.4,3.2c-12.3,5.4-24.6,10.8-36.9,16.2c-0.6,0.3-1.2,0.5-1.8,1.1c0.7,0,1.4,0,2.1,0
					c11.8,0,23.5,0,35.3-0.1c1.7,0,2.2,0.4,2.1,2.1c-1,10.9-1.8,21.8-2.8,32.7c-0.6,6.8-1.3,13.7-1.8,20.5c-0.1,1.9-0.7,2.8-2.7,3.3
					c-12.2,3.1-24.4,6.3-36.6,9.6c-1.6,0.4-3.2,0.4-4.8,0c-12.3-3.2-24.7-6.4-37.1-9.5c-1.3-0.3-1.7-0.9-1.8-2.1
					c-1.2-8.3-2-16.6-2.4-24.9c-0.1-1.5,0.2-2,1.8-2c4.8,0.1,9.7,0.1,14.5,0c1.5,0,2,0.5,2.1,2c0.2,3.9,0.7,7.7,1,11.6
					c0.1,1.3,0.5,1.9,1.8,2.2c7.3,1.4,14.5,2.8,21.8,4.2c1.1,0.2,1.9-0.7,2.8-0.9c6.3-1.8,12.5-3.8,18.7-5.5
					c1.3-0.4,1.8-0.9,1.9-2.2c0.4-7,0.8-14,1.4-21c0.1-1.9-1-1.5-2-1.5c-21.6-0.2-43.3-0.4-64.9,0.1c-1.8,0-2.4-0.5-2.5-2.3
					c-0.3-4.8-0.8-9.6-1.4-14.4c-0.2-1.6,0.2-2.4,1.8-3.1c13.8-5.9,27.6-11.8,41.3-17.8c0.6-0.3,1.2-0.6,1.8-0.8
					C148.4,115.5,148.3,115.3,148.3,115.1z"/>
			</g>
		</g>
	</g>
</g>
  <path fill="#FBFCFC" d="M223.1,84.8"/>
</svg>
