<svg id="Layer_2" data-name="Layer 2" xmlns="http://www.w3.org/2000/svg" xmlns:xlink="http://www.w3.org/1999/xlink" viewBox="0 0 1380 1380"><defs><style>.cls-1,.cls-12,.cls-2,.cls-39,.cls-44{fill:none;}.cls-1{clip-rule:evenodd;}.cls-10,.cls-100,.cls-101,.cls-102,.cls-103,.cls-108,.cls-11,.cls-113,.cls-114,.cls-115,.cls-13,.cls-14,.cls-15,.cls-16,.cls-17,.cls-18,.cls-19,.cls-20,.cls-21,.cls-22,.cls-24,.cls-25,.cls-26,.cls-27,.cls-28,.cls-29,.cls-3,.cls-30,.cls-31,.cls-33,.cls-35,.cls-36,.cls-37,.cls-38,.cls-4,.cls-41,.cls-42,.cls-43,.cls-45,.cls-46,.cls-47,.cls-48,.cls-49,.cls-5,.cls-50,.cls-51,.cls-52,.cls-53,.cls-54,.cls-56,.cls-57,.cls-58,.cls-59,.cls-62,.cls-63,.cls-64,.cls-65,.cls-66,.cls-67,.cls-68,.cls-69,.cls-70,.cls-71,.cls-72,.cls-76,.cls-77,.cls-78,.cls-79,.cls-80,.cls-81,.cls-82,.cls-83,.cls-84,.cls-85,.cls-86,.cls-87,.cls-88,.cls-89,.cls-90,.cls-91,.cls-92,.cls-94,.cls-95,.cls-96,.cls-97,.cls-98,.cls-99{fill-rule:evenodd;}.cls-3{opacity:0.1;}.cls-4{fill:#511777;}.cls-5{fill:#3d0b60;}.cls-6{clip-path:url(#clip-path);}.cls-7{clip-path:url(#clip-path-2);}.cls-8{fill:url(#linear-gradient);}.cls-9{fill:#d181ff;}.cls-10{fill:#6c04a8;}.cls-11{fill:#400860;}.cls-110,.cls-111,.cls-12,.cls-39,.cls-44,.cls-87{stroke:#000;stroke-miterlimit:10;}.cls-12{stroke-width:1.69px;}.cls-13{fill:#be996b;}.cls-14{fill:#e6b87f;}.cls-15{fill:#686868;}.cls-16{fill:#d9ae79;}.cls-17{fill:#f7d4a9;}.cls-17,.cls-30,.cls-55,.cls-56{opacity:0.5;}.cls-17,.cls-30,.cls-40,.cls-54,.cls-55,.cls-56,.cls-59,.cls-94,.cls-97{isolation:isolate;}.cls-18,.cls-30{fill:#a7875f;}.cls-19{fill:#a78760;}.cls-20{fill:#d4ab79;}.cls-21{fill:#dbb07c;}.cls-22{fill:#3a3a3a;}.cls-108,.cls-23{fill:#282828;}.cls-24{fill:#1d1d1d;}.cls-25{fill:#9b9696;}.cls-26{fill:#18130d;}.cls-27{fill:#2c2c2c;}.cls-28{fill:#201f1f;}.cls-29{fill:#413424;}.cls-31{fill:#4b3c2a;}.cls-32{fill:#cca372;}.cls-33{fill:#211a11;}.cls-34{fill:#eb4437;}.cls-35{fill:#318613;}.cls-36{fill:#d6dc2b;}.cls-37{fill:#c92bdc;}.cls-38{fill:#2d69b4;}.cls-39{stroke-width:1.35px;}.cls-40{font-size:11.9px;fill:#4a4a4a;font-family:AppleMyungjo;}.cls-41{fill:#761c93;}.cls-42{fill:#711c8d;}.cls-43{fill:#691a83;}.cls-44{stroke-width:1.61px;}.cls-45{fill:#8b15a4;}.cls-46,.cls-61{fill:#87159f;}.cls-47{fill:#83159b;}.cls-48{fill:#6a107d;}.cls-49,.cls-60{fill:#832884;}.cls-50{fill:#812882;}.cls-51{fill:#7c267d;}.cls-52{fill:#79287a;}.cls-53{fill:#7a297b;}.cls-54,.cls-55,.cls-56,.cls-82,.cls-94{fill:#fff;}.cls-54,.cls-59{opacity:0.2;}.cls-57{fill:#3c0959;}.cls-58{fill:#2d0743;}.cls-62{fill:#7c04a9;}.cls-63{fill:#9c04b3;}.cls-64{fill:#8204ab;}.cls-65{fill:#c004c2;}.cls-66{fill:#3b0c56;}.cls-67{fill:#2d0742;}.cls-68{fill:#e1b5e2;}.cls-69{fill:#daa1db;}.cls-70{fill:#bc7dbd;}.cls-71,.cls-73{fill:#1f1f1f;}.cls-72{fill:#181818;}.cls-74{fill:#292929;}.cls-75,.cls-95,.cls-97{fill:#171717;}.cls-76{fill:#bfbebe;}.cls-77{fill:#262627;}.cls-78{fill:#54266e;}.cls-79{fill:#300c44;}.cls-80{fill:#dfdfdf;}.cls-81{fill:#ece9e9;}.cls-83{fill:#2f0c42;}.cls-84{fill:#2e0a42;}.cls-85{fill:#f6f6f6;}.cls-86{fill:#f8cdff;}.cls-87{fill:#141414;stroke-width:0.25px;}.cls-88{fill:#fed59a;}.cls-89{fill:#fee1b7;}.cls-90{fill:#c9a777;}.cls-91{fill:#1f0303;}.cls-92{fill:#160101;}.cls-93{fill:#f5f5f5;}.cls-94{opacity:0.7;}.cls-96{fill:#f9c258;}.cls-97{opacity:0.1;}.cls-98{fill:#dedede;}.cls-100{fill:#c5b9b9;}.cls-101{fill:#212121;}.cls-102{fill:#303030;}.cls-103{fill:#030303;}.cls-104{fill:#101010;}.cls-105{fill:#616161;}.cls-106{fill:#444;}.cls-107{fill:#333;}.cls-109{fill:#444343;}.cls-110{fill:#545454;}.cls-110,.cls-111{stroke-width:0.17px;}.cls-111,.cls-112{fill:#0a0a0a;}.cls-113{fill:#232222;}.cls-114{fill:#ffbf67;}.cls-115{fill:#fdce8e;}</style><clipPath id="clip-path"><path class="cls-1" d="M736,82s-226,7-274,39-52,116-87,151S215,348,204,409s19.3,96.45,25.65,165.23-25.91,163.36-4.28,221.56,118.75,68.7,138.69,126.46S431,1060,469,1067s116-21,194,7,64,9,159,17,212.68-33.71,239.34-100.36,35-96.87,96.85-137.76S1253,734,1267,682s41-222,0-254-108-146-132-185S1019.36,124.5,959.68,132.75,869,88,736,82Z"/></clipPath><clipPath id="clip-path-2"><rect class="cls-2" x="-1601.48" y="6.45" width="4528.64" height="1372.38"/></clipPath><linearGradient id="linear-gradient" x1="3733.61" y1="-5866.75" x2="3733.61" y2="4497.74" gradientTransform="matrix(0.08, 0, 0, -0.08, 344.07, 386.96)" gradientUnits="userSpaceOnUse"><stop offset="0" stop-color="#f613b3"/><stop offset="0.46" stop-color="#621163"/><stop offset="0.82" stop-color="#621163"/></linearGradient></defs><g id="Layer_3" data-name="Layer 3"><polygon class="cls-3" points="828 1105 805 1152 738 1152 774 1085 828 1105"/></g><path class="cls-4" d="M735.07,70s-232,7.19-281.28,40-53.39,119.08-89.32,155-164.25,78-175.54,140.64,19.81,99,26.33,169.62-26.6,167.71-4.4,227.46S332.78,873.3,353.24,932.59,422,1074,461,1081.19s119.09-21.56,199.16,7.18,65.7,9.24,163.23,17.46,218.33-34.61,245.7-103,36-99.45,99.43-141.42,97.33-122,111.7-175.43,42.09-227.9,0-260.75-110.87-149.88-135.51-189.92S1026,113.63,964.7,122.1,871.61,76.16,735.07,70Z"/><path class="cls-5" d="M894.61,1093.1s221.34-69.9,259.85-114.89,19-129.1,43.88-173.44,136.91-119.68,130.78-183-45.95-89.92-71.39-156.1S1237.81,297,1200.22,245.55,1063.74,210.76,1028,159.26,923.42,41.8,883.92,45.48,775.16,98.55,690.29,92.62s-65.74,8.94-161.83,27.51S327.72,212.71,320,286s-7.63,105.48-57.31,163.1S202.1,593,202.75,648.25s21.36,230.77,70.79,251,147.39,114.16,182,146,147.28,84.86,204,60.08S761.52,1124.23,894.61,1093.1Z"/><g class="cls-6"><g class="cls-7"><rect id="background" class="cls-8" x="-1607.29" y="6.45" width="4534.45" height="876.84"/><g id="Clouds"><ellipse id="Ellipse_1_copy_18" data-name="Ellipse 1 copy 18" class="cls-9" cx="-69.44" cy="680.34" rx="179.61" ry="118.12"/><ellipse id="Ellipse_1_copy_20" data-name="Ellipse 1 copy 20" class="cls-9" cx="283.68" cy="574.23" rx="54.03" ry="47.64"/><ellipse id="Ellipse_1_copy_22" data-name="Ellipse 1 copy 22" class="cls-9" cx="545.3" cy="648.39" rx="54.03" ry="47.64"/><ellipse id="Ellipse_1_copy_28" data-name="Ellipse 1 copy 28" class="cls-9" cx="322.22" cy="647.13" rx="199.84" ry="90.34"/><circle id="Ellipse_1_copy_14" data-name="Ellipse 1 copy 14" class="cls-9" cx="-66.92" cy="628.35" r="102.92"/><circle id="Ellipse_1_copy_19" data-name="Ellipse 1 copy 19" class="cls-9" cx="203.99" cy="632.8" r="93.82"/></g><g id="Mountians"><path id="mountians_right" data-name="mountians right" class="cls-10" d="M2943.81,285.69l-409.17,280-331.91-182-318.17,151-100.31-65.64-509.1,246.31-40.66-25.17-196,92.95-120.45,86,2019.74,22.66Z"/><path id="mountians_left" data-name="mountians left" class="cls-10" d="M1131.27,820.74,674.85,536.66,531.74,656.53,287.17,546.34,96,621.67-256.21,441.58-463.8,534.72-656.48,435l-169,85.6-196.55-110-158,74-142.72-74.17-186.87,101.08-101.47-86.36-29.43,381.68,2762.38,67.39Z"/><path id="shadow_08" data-name="shadow 08" class="cls-11" d="M676.4,537.63l-8.52,17.23L556.72,666,794.91,822.09l116.38,5.23L726.16,614.89l31.38-5.42Z"/><path id="shadow_05" data-name="shadow 05" class="cls-11" d="M-452.57,544.21l207.21-92.37L-62.56,571.9l-67.2,8.33L130.89,779.88-135,744.05Z"/><path id="shadow_04" data-name="shadow 04" class="cls-11" d="M110.17,626.9,416.52,808.54l162.67.39-189.78-171,47.25-7.75L297.24,551.57Z"/><path id="shadow_02" data-name="shadow 02" class="cls-11" d="M1781,473.92l57.13,85.39-481.8,225.41L1133,820.35,1615.2,598.63l-16.85-11.43Z"/><g id="Computer"><path id="kabel01" class="cls-12" d="M824.77,649.56s-32.86,20.33-29,44c-5.23,22.9-15.14,6.11-5.58,27.91s10.31,37.93,10.31,37.93"/><path id="cright" class="cls-13" d="M1160.71,362.76,1255,421.24,1264.7,471l4.06,349.73s-.31,8.09-6.58,9.68S1157.8,855.6,1157.8,855.6l-.19-56,5.62-426.41S1163.94,366.19,1160.71,362.76Z"/><path id="cfront" class="cls-14" d="M1150.83,801.18l-323.19-5s-8,2.6-8.33-8.33,9.49-399.69,9.49-399.69,1.08-10.6,6.58-10.46S1158.19,363,1158.19,363s9.63,2.66,9.68,9.87-7.08,413.39-7.74,421.38S1153.6,801.78,1150.83,801.18Z"/><path id="cbot" class="cls-15" d="M1158.19,852.88l-304.8-11.61s-9.31-2.46-9.88-10.27.59-34.85.59-34.85L1158,801Z"/><path id="cfront_inner" data-name="cfront inner" class="cls-16" d="M842.16,391.62l312.16-13.37-7.55,408.6L830.54,782Z"/><path class="cls-17" d="M834.41,377.67s-4.7-3.34-5.61,13.95-9.49,392.71-9.49,392.71.17,9.34,3.68,10.27S850.87,796,850.87,796s-36.94-361.61-11.23-408.21c40.84-6.86,43.07-10.59,52.29-11.62C855.29,377.64,834.41,377.67,834.41,377.67Z"/><path id="shadow" class="cls-18" d="M1162.26,365.28s67.48,271.89,25.56,482.18c76.39-18.12,76.68-18.39,76.68-18.39s5.56-.6,4.46-14.33-3.87-340.82-3.87-340.82l-9.88-51.51Z"/><path id="ctop_inner" data-name="ctop inner" class="cls-19" d="M1130.5,410.59,857.07,421.05l24.4,14.33,237-6.78Z"/><path id="cright_inner" data-name="cright inner" class="cls-20" d="M1119.46,428.22l.2,202.36,7,8.32L1131.86,412Z"/><path id="cbot_inner" data-name="cbot inner" class="cls-19" d="M1119.46,630.19,872,632.32l-20.53,10.46,275.76-3.49Z"/><path id="cleft_inner" data-name="cleft inner" class="cls-21" d="M872.56,630.19,879,434.8,859.2,421.63l-9.3,221.92Z"/><path id="cscreen" class="cls-22" d="M897.83,434.73H1097.1a19.36,19.36,0,0,1,19.36,19.36V611.67A19.37,19.37,0,0,1,1097.1,631H897.83a19.37,19.37,0,0,1-19.36-19.37V454.09A19.36,19.36,0,0,1,897.83,434.73Z"/><rect id="cscreen_copy" data-name="cscreen copy" class="cls-23" x="881.47" y="440.22" width="229.28" height="187.45" rx="19.36"/><path class="cls-24" d="M1001,445.55s43.55,112.09,3.49,181.75c89.11.3,89.09.37,89.09.37s13.09-3.9,13.38-13.47,2.89-153.71.55-157-3.51-14.2-14.12-14.23S1001,445.55,1001,445.55Z"/><path class="cls-25" d="M930.27,441s-47.39-9.33-45.9,35.24C888.91,442.87,919.08,443.57,930.27,441Z"/><path id="cinput_bot" data-name="cinput bot" class="cls-26" d="M1065.05,691.58h59.83V727h-60.8V716.56h-92V701.65h92.56Z"/><path class="cls-27" d="M1030.38,715.2l-10.07-2.13h-31l-4.07,2.32Z"/><path class="cls-28" d="M1115.59,723.33s-3.35-10.12-18.59-10.26-36.21.39-36.21.39l-15.88,2.32,29.82.58v7.56Z"/><path id="Shape_19_copy" data-name="Shape 19 copy" class="cls-27" d="M1110.75,723.29l-8.14-4.8h-25l-3.28,5.23Z"/><path class="cls-27" d="M1110.75,697s-18,3.31-26.34,2.9-9.1.2-9.1.2l.19-2.91Z"/><path class="cls-29" d="M1065.24,691.58l10.85,5.61,41.63-.19,7.36-5Z"/><path id="shadow-2" class="cls-30" d="M1158.39,748.31s-177.75,48.39-314.1,47.25c229.61,4,314.29,5,314.29,5Z"/><path class="cls-31" d="M1117.72,697.58v25.95l7,3.1.39-34.67Z"/><path class="cls-29" d="M1117.53,723.53l-42.22-.2-11.23,3.3,60.61.19Z"/><path id="tomato_copy" data-name="tomato copy" class="cls-32" d="M854.36,704.16h1.74a6.39,6.39,0,0,1,6.39,6.39h0a6.39,6.39,0,0,1-6.39,6.39h-1.74a6.39,6.39,0,0,1-6.39-6.39h0A6.39,6.39,0,0,1,854.36,704.16Z"/><path class="cls-33" d="M1074.92,723.33v-7.55l-11,1v9.88Z"/><path class="cls-28" d="M1085.77,700.1s.73,10.34-39.51,9.87S992,708.62,992,708.62l-1.35-2.71,84.23-1,1-5.23Z"/><path class="cls-29" d="M1074.92,715.78l-90.43-.39-12.39,1,92,.78Z"/><path class="cls-33" d="M984.49,715.2l-.19-9.49-12.2-3.87v14.52Z"/><path class="cls-29" d="M984.49,706.1l89.85-1-9.49-3.29-92.56-.39Z"/><path class="cls-33" d="M1076.09,697.19l-.78,8.33L1064.85,702l.2-10.45Z"/><path id="tomato" class="cls-34" d="M853.2,704.16h1.74a6.39,6.39,0,0,1,6.39,6.39h0a6.39,6.39,0,0,1-6.39,6.39H853.2a6.39,6.39,0,0,1-6.39-6.39h0A6.39,6.39,0,0,1,853.2,704.16Z"/><path class="cls-35" d="M858.81,705.52s-3.95-3.76-9.87.19C854.46,705.69,858.81,705.52,858.81,705.52Z"/><path class="cls-36" d="M858.81,705.32l-9.87.39a7.66,7.66,0,0,0-1.55,2.33c12.93-.09,13.36,0,13.36,0A6.8,6.8,0,0,0,858.81,705.32Z"/><path class="cls-37" d="M860,711.72l-13,.38s1,2.53,1.94,3.1c5.86-.12,10.45,0,10.45,0a11.08,11.08,0,0,0,1.55-2.52C860.36,712.21,860.71,712.65,860,711.72Z"/><path class="cls-38" d="M859.2,715.2H848.94s2.17,1.69,2.9,1.74a36.78,36.78,0,0,0,4.46,0A8,8,0,0,0,859.2,715.2Z"/><path class="cls-35" d="M853.58,704.94s1.84-2.92,3-3.33c.36-.44-.43-1-.66-.67A15.58,15.58,0,0,0,853.58,704.94Z"/><path id="kable02" class="cls-39" d="M863.27,801l161.5,3.29-9.49,15.1s-58.08-9.1-70.29-1.74-11.14,9.23,1.35,12.39"/></g><path id="mountian_front_right" data-name="mountian front right" class="cls-10" d="M2127,993.28,1524,816.67l-96.2-37.95-189.27-86-50.47,46.47-128.27,39.12-166.67,88.5L540.34,971.78,404.71,989Z"/><path id="shadow_front_right" data-name="shadow front right" class="cls-11" d="M1235.46,690.61l-20.53,41,18,.78-206.62,98.37,394.07-57.13"/><path id="mountian_front" data-name="mountian front" class="cls-10" d="M956.8,852.3,798.26,756.45l-209,68.74Z"/><path id="shadow_front" data-name="shadow front" class="cls-11" d="M799.36,756.25l-111.73,42.8,118.7,9.88-10.07-32.54,13.37-.38Z"/><text id="Snackntosh_Plus" data-name="Snackntosh Plus" class="cls-40" transform="translate(870.75 713.06) scale(0.81 1)">Snackntosh Plus</text></g><g id="Wiese"><path id="wiese_back" data-name="wiese back" class="cls-41" d="M2930.84,690.61s-72.27-32.65-94.69-32.73S2489.07,781.07,2436.07,782.2s-374.15-52-426.8-50.73-264.5,85.35-308.87,85.4S1449.07,742.19,1413,740.76s-400.17,87-440.74,88.31-547.54-82.81-596.24-77.46S245.26,773,192.67,772.91s-272.15-86.29-304-86.37S-237.11,718-281.77,720.43-521.11,645.69-561,645.68s-194.67,55-241.09,57.9-126.1-30.38-158.79-27.69-150.28,20.38-184,20.33-287.37-84.64-321.65-84.62S-1671,677.83-1671,677.83l67,712.81,4542-2.51Z"/><path id="wiese_back_copy" data-name="wiese back copy" class="cls-42" d="M2930.84,725.85s-72.27-32.65-94.69-32.72-347.08,123.19-400.08,124.32-374.15-52-426.8-50.74-264.5,85.36-308.87,85.4S1449.07,777.44,1413,776s-400.17,87-440.74,88.3-547.54-82.8-596.24-77.46-130.79,21.37-183.38,21.3-272.15-86.28-304-86.37-125.75,31.45-170.41,33.89S-521.11,680.93-561,680.93s-194.67,54.94-241.09,57.9-126.1-30.38-158.79-27.7-150.28,20.39-184,20.34-287.37-84.65-321.65-84.63S-1671,713.07-1671,713.07l67,712.82,4542-2.52Z"/><path id="wiese_back_copy_2" data-name="wiese back copy 2" class="cls-43" d="M2930.84,760.71s-72.27-32.65-94.69-32.73S2489.07,851.17,2436.07,852.3s-374.15-51.95-426.8-50.73-264.5,85.35-308.87,85.4S1449.07,812.29,1413,810.86s-400.17,87-440.74,88.31-547.54-82.81-596.24-77.46S245.26,843.07,192.67,843s-272.15-86.29-304-86.37-125.75,31.45-170.41,33.89S-521.11,715.79-561,715.78s-194.67,55-241.09,57.9S-928.2,743.3-960.89,746s-150.28,20.38-184,20.33-287.37-84.64-321.65-84.62S-1671,747.93-1671,747.93l67,712.81,4542-2.51Z"/><path id="kable03" class="cls-44" d="M934.92,822.29s26.14,9.14,25.75,36.21"/><path id="wiese_mitte" data-name="wiese mitte" class="cls-45" d="M2934.52,811.06s-135.32,51.89-262,48-429.35-89.45-549.76-86.17-465.94,45.28-536.6,46.67S1450,790.06,1395.6,799.82,775.14,880,720.74,882.9c-75.64-5.38-600.17-87.42-674.47-87.34s-411-41-475.21-32.72-309.45,57.1-456.62,42.21-403-40.73-453.72-37-270.52,33.5-270.52,33.5l-12.59,611,4567.75-2.91Z"/><path id="wiese_mitte_copy" data-name="wiese mitte copy" class="cls-46" d="M2935.87,894.52s-135.32,51.89-262,48-429.35-89.45-549.77-86.17S1658.17,901.65,1587.51,903,1451.34,873.52,1397,883.29,776.49,963.5,722.1,966.36C646.46,961,121.93,878.94,47.62,879s-411-41-475.21-32.73S-737,903.4-884.21,888.52s-403-40.74-453.71-37S-1608.45,885-1608.45,885L-1621,1496l4567.76-2.91Z"/><path id="wiese_mitte_copy_2" data-name="wiese mitte copy 2" class="cls-47" d="M2935.87,970s-135.32,51.89-262,48-429.35-89.46-549.77-86.18-465.93,45.28-536.59,46.67S1451.34,949,1397,958.81,776.49,1039,722.1,1041.88c-75.64-5.38-600.17-87.42-674.48-87.33s-411-41-475.21-32.73S-737,978.93-884.21,964s-403-40.74-453.71-37-270.53,33.5-270.53,33.5l-12.59,611,4567.76-2.9Z"/><path class="cls-48" d="M917.41,1099l9.76,12.56s-39.68,13.27-49.17,6.74-.89-20.07-1.08-21.49S917.41,1099,917.41,1099Z"/><path id="wiese_front" data-name="wiese front" class="cls-49" d="M2926,884.26s-206.49,57.18-306.35,45.11-618.8-77.28-693.45-72-215.14,38-300,37.95S1470.33,854,1362.1,884.45s-514.38,287.17-582.88,302.67-132.32,27.11-241.28-13.94S-176,840.21-292.23,841.85s-382.58,43.95-548.6,43.76-458.95-61.48-552.09-45.51-224.63,37.18-224.63,37.18l-11.62,620.26,4581.31-55Z"/><path id="wiese_front_copy" data-name="wiese front copy" class="cls-50" d="M2911.86,950.46s-206.48,62.65-306.35,49.43-618.8-84.68-693.45-78.93-215.14,41.69-300,41.59S1456.2,917.26,1348,950.67s-514.39,314.66-582.88,331.64S632.77,1312,523.8,1267-190.12,902.2-306.36,904s-382.59,48.16-548.61,48-458.95-67.36-552.09-49.86-224.63,40.74-224.63,40.74l-11.62,679.62L2938,1562.18Z"/><path id="wiese_front_copy_2" data-name="wiese front copy 2" class="cls-51" d="M2914.57,1089.88s-206.48,62.66-306.35,49.44-618.8-84.69-693.45-78.93-215.14,41.69-300,41.58-155.9-45.29-264.13-11.88S836.29,1404.76,767.8,1421.73s-132.32,29.71-241.29-15.27-713.92-364.84-830.16-363-382.59,48.16-548.61,48-458.94-67.37-552.08-49.87S-1629,1082.24-1629,1082.24l-11.61,679.63,4581.31-60.26Z"/><path id="wiese_front_copy_3" data-name="wiese front copy 3" class="cls-52" d="M2911.86,1233s-206.48,62.65-306.35,49.44-618.8-84.69-693.45-78.94-215.14,41.69-300,41.59-155.9-45.29-264.13-11.88-514.39,314.66-582.88,331.64-132.32,29.7-241.29-15.28-713.92-364.83-830.16-363-382.59,48.16-548.61,48-458.95-67.36-552.09-49.86-224.63,40.74-224.63,40.74L-1643.31,1905,2938,1844.71Z"/><path id="wiese_front_copy_4" data-name="wiese front copy 4" class="cls-53" d="M2919.22,1295.92s-206.49,62.66-306.35,49.44-618.8-84.69-693.45-78.93-215.14,41.69-300,41.59-155.91-45.29-264.14-11.89S840.94,1610.8,772.45,1627.78s-132.32,29.7-241.29-15.28-713.92-364.84-830.17-363-382.58,48.16-548.6,48-458.95-67.36-552.09-49.87-224.63,40.74-224.63,40.74l-11.62,679.63,4581.31-60.26Z"/></g><g id="Stars"><path id="star_outer" data-name="star outer" class="cls-54" d="M308.76,333.91a10.56,10.56,0,1,1-10.56,10.55,10.55,10.55,0,0,1,10.56-10.55Zm.87-2.52a13.17,13.17,0,1,1-13.17,13.17h0a13.17,13.17,0,0,1,13.17-13.17Z"/><circle id="star_inner" data-name="star inner" class="cls-55" cx="309.63" cy="344.75" r="8.52"/><path id="star_outer_copy_11" data-name="star outer copy 11" class="cls-54" d="M1022.75,302.32a9.7,9.7,0,1,1-9.7,9.7h0a9.7,9.7,0,0,1,9.7-9.7Zm-.79-2.49a12.1,12.1,0,1,1-12.1,12.1A12.1,12.1,0,0,1,1022,299.83Z"/><path id="star_inner_copy_11" data-name="star inner copy 11" class="cls-56" d="M1022,303.92a7.83,7.83,0,1,1-7.82,7.84h0A7.83,7.83,0,0,1,1022,303.92Z"/><path id="star_outer_copy_2" data-name="star outer copy 2" class="cls-54" d="M110.37,269.37a4.66,4.66,0,1,1-4.66,4.66h0a4.66,4.66,0,0,1,4.66-4.66Zm.38-1.11a5.81,5.81,0,1,1-5.81,5.81h0A5.81,5.81,0,0,1,110.75,268.26Z"/><path id="star_inner_copy_2" data-name="star inner copy 2" class="cls-56" d="M110.75,270.4a3.76,3.76,0,1,1-3.75,3.76h0a3.74,3.74,0,0,1,3.75-3.76Z"/><path id="star_outer_copy_3" data-name="star outer copy 3" class="cls-54" d="M21.68,328.43A4.66,4.66,0,1,1,17,333.09h0a4.67,4.67,0,0,1,4.66-4.66Zm.38-1.1a5.81,5.81,0,1,1-5.81,5.8,5.81,5.81,0,0,1,5.81-5.8Z"/><path id="star_inner_copy_3" data-name="star inner copy 3" class="cls-56" d="M22.06,329.46a3.76,3.76,0,1,1-3.75,3.76h0a3.75,3.75,0,0,1,3.75-3.76Z"/></g><g id="Rocks"><path id="rock_copy" data-name="rock copy" class="cls-57" d="M1307.88,801.83l-9.1.09,3.74-3.06,3.79,1.71Z"/><path id="rock_copy_2" data-name="rock copy 2" class="cls-58" d="M1302.56,798.92l-1,1.81,2.19,1.15,4.06-.07-1.51-1.25Z"/><path id="rock_copy_3" data-name="rock copy 3" class="cls-58" d="M1301.39,801.9l-1.06-.67-1,.68Z"/><path id="shadow_copy" data-name="shadow copy" class="cls-59" d="M1298.92,801.94l7.61,2.53,1.24-2.64Z"/><ellipse class="cls-60" cx="1370.82" cy="975.85" rx="34.47" ry="4.07"/><ellipse class="cls-61" cx="814.18" cy="1077.13" rx="22.75" ry="6.78"/><ellipse class="cls-61" cx="882.92" cy="1041.88" rx="20.82" ry="3.29"/></g><g id="cubes"><path id="Shape_57_copy" data-name="Shape 57 copy" class="cls-62" d="M705.7,67.27l-1.63,54.6,56.29,15.32-6.7-54.54Z"/><path id="Shape_58_copy" data-name="Shape 58 copy" class="cls-63" d="M702.83,121.71l-21.65,36.82,49,20.86,30.4-43.69Z"/><path id="Shape_59_copy" data-name="Shape 59 copy" class="cls-64" d="M682.21,158.36l-3.1-39.75L707.3,66.53l-2.9,54.23Z"/></g><path id="Shape_60_copy" data-name="Shape 60 copy" class="cls-65" d="M412.22,354.23c-4.1-14.07,47.5-17.22,47.5-17.22h98.4s12.16.94,12.16,13.74-22.06,14.79-22.06,14.79-18.69-1.72-18.69,4.7,1.84,7,18.23,7h91.86s15.09-.53,15.09,11.83-6.16,11.48-14.18,11.48H359.76s-15.08.67-15.08-11.83,17.56-13.57,17.56-13.57H466.48s8.78,1.55,8.78-3.83-6.2-7.65-10.13-7.65H432C420.55,363.63,414.41,361.71,412.22,354.23Z"/><path id="Shape_61_copy" data-name="Shape 61 copy" class="cls-66" d="M2934.71,1288.4l-266.07,1.93-92.76-34.66-147.75,7.17-86.37,45.5-45.89,3.88-25.37-29.83v-43.57h-146l-5.81,55-13,63.9-96.63,1.36-80.95-35.83-34.66-45.12-71.65,6.59-60.22,32.34-79.4,16.26-56.35-42.41-42,39.9-68.17-10.27-30.4,18.59-71.65-1.74-77.07-5.23-23,17-110-5v-53.64l-38.54-43-51.12,23.24L1060.59,1300l-57.12,20.52L826.86,1343l-116-14.14-54,19.36-128.58-20.91-134.78,20-70.1-31.57-23.05,23-36.6-1.55L213,1295.56l-68,32.73-37.18,1.55H59.44l-31.18-9.3-244.58,16.08-180.48-45.71-92.37,8.33-183.19,45.9v-61.78l-49-31.37-103.8,23.43-205.26,68L-1207,1320.54l-151.24,29.24-95.08-9.1-90.24.58-121,7.75,20.53,104.18,4606.68,1.94Z"/><path class="cls-67" d="M2934.71,1308.43l-266.07,1.94-92.76-34.67-147.75,7.17-86.37,45.51-45.89,3.87-25.37-29.82v-43.57h-146l-5.81,55-13,63.91-96.63,1.35-80.95-35.82-34.66-45.12-71.65,6.58-60.22,32.34-79.4,16.27L1625.85,1311l-42,39.89-68.17-10.26-30.4,18.59-71.65-1.75-77.07-5.22-23,17-110-5v-53.64l-38.54-43-51.12,23.24-53.26,29.24-57.12,20.53L826.86,1363l-116-14.14-54,19.37-128.58-20.92-134.78,20-70.1-31.56-23.05,23-36.6-1.55L213,1315.6l-68,32.72-37.18,1.55H59.44l-31.18-9.29-244.58,16.07L-396.8,1311l-92.37,8.33-183.19,45.89V1303.4l-49-31.37-103.8,23.43-205.26,68L-1207,1340.58l-151.24,29.24-95.08-9.1-90.24.58-121,7.74,20.53,104.19,4606.68,1.93Z"/><path class="cls-66" d="M1129,1265.55l-16.65,86.36-86.18,8.91-119.28,6.78,18-16.46-24.21-4.07S1103.39,1319.33,1129,1265.55Z"/><path class="cls-68" d="M1230.57,1007.85H1051.76l-.12-41.3,27-23.71,106-8.52,22.5,31.14,19.12,6.44Z"/><path id="Shape_79_copy" data-name="Shape 79 copy" class="cls-69" d="M1150.92,1022.85H1009.21l-.08-39,21.38-22.37,84-8,17.84,29.38,15.14,6.08Z"/><path id="Shape_79_copy_2" data-name="Shape 79 copy 2" class="cls-70" d="M1107,1022.85h-92.13l-.06-30.13,13.9-17.3,54.61-6.22,11.58,22.72,9.86,4.7Z"/><path id="Shape_79_copy_3" data-name="Shape 79 copy 3" class="cls-68" d="M633.6,842.41h17.8l0-4.23-2.7-2.43-10.55-.87-2.23,3.19-1.91.66Z"/><path id="Shape_79_copy_4" data-name="Shape 79 copy 4" class="cls-69" d="M635.56,842.41h14.11v-4l-2.13-2.29-8.36-.83-1.76,3-1.51.63Z"/><path id="Shape_79_copy_5" data-name="Shape 79 copy 5" class="cls-70" d="M637.94,842.41h9.18v-3.09l-1.38-1.77-5.44-.64-1.16,2.33-1,.48Z"/><path id="Shape_80_copy" data-name="Shape 80 copy" class="cls-59" d="M633.6,842.46l.6,3.77.93.55,2.38,2.23,10.3-.78,2-2,1.35-3.93Z"/><path id="Shape_81_copy" data-name="Shape 81 copy" class="cls-69" d="M274,889.57l131.68,1.9-7.16-7.73-44.81-7.87-26.08-.27-19.47,7.73-25.52.81Z"/><path id="Shape_81_copy_2" data-name="Shape 81 copy 2" class="cls-70" d="M301.45,890.3l104,1.37-5.65-5.57-35.39-5.66-20.6-.2-15.37,5.57-20.16.58Z"/><path id="Shape_81_copy_3" data-name="Shape 81 copy 3" class="cls-68" d="M297.34,777.78l10.84.67-.59-2.71L303.9,773l-2.14-.1-1.61,2.71-2.1.28Z"/><path id="Shape_81_copy_4" data-name="Shape 81 copy 4" class="cls-69" d="M296.34,778l10.28.47-.56-1.9-3.5-1.93-2-.07-1.52,1.9-2,.2Z"/><path class="cls-48" d="M877.77,1114.94s159.81-110.09,99.44-166.9c-4.36.37,3.63,34.94,3.63,34.94s-21.55,52.83-44.17,66.62-63.38,44.61-63.38,44.61l-1.22,14Z"/></g></g><path class="cls-71" d="M956.66,859.38S902.49,877.46,941.05,910s56.55,73.88,39.35,96.68-43.39,49.9-98.52,75-64.18,31-64.18,31l-8.43-26.28s48.77-10.58,69.15-19.1,157.5-66.95,55.46-147.2C918,899,894.09,859.3,956.66,859.38Z"/><path class="cls-72" d="M806.31,1074.4l-44.53,4.75s-46.66,24.82-7.09,58.63c49.5-2.56,58.14-4.83,58.14-4.83S846.61,1093.28,806.31,1074.4Z"/><ellipse class="cls-73" cx="761.78" cy="1107.95" rx="29" ry="23.84" transform="translate(-528.35 1486.68) rotate(-71.85)"/><ellipse id="Ellipse_2_copy" data-name="Ellipse 2 copy" class="cls-74" cx="761.94" cy="1108.69" rx="28.36" ry="22.17" transform="translate(-528.93 1487.34) rotate(-71.85)"/><ellipse class="cls-75" cx="772.45" cy="1114.3" rx="2.58" ry="4" transform="translate(-527.04 1501.18) rotate(-71.85)"/><ellipse id="Ellipse_3_copy" data-name="Ellipse 3 copy" class="cls-75" cx="758.86" cy="1103.61" rx="2.84" ry="4" transform="translate(-526.23 1480.91) rotate(-71.85)"/><path class="cls-76" d="M757.66,1106l-13.88,1.12s-5.68-3.35.31-5.82c11.53-.49,12.65-.78,12.65-.78S759.5,1101.57,757.66,1106Z"/><path class="cls-76" d="M769.7,1111.5l-14.49,2.84s-4,2.76.92,4.65c14.72-3.21,14.65-3.34,14.65-3.34S773.66,1113.33,769.7,1111.5Z"/><path class="cls-77" d="M822.11,1091.49l-37.93,6.31s-.49-9.36-15.91-16.69c37.06-2.42,37-2.39,37-2.39S821.64,1086.3,822.11,1091.49Z"/><g id="Character"><path class="cls-78" d="M392,1237.89l-7.17-7.94-8.71-2.71-3.87-7.16-2.13-6.4-6-1.93.2,19.36,13.55,12.78Z"/><path class="cls-79" d="M362.71,1211.17l-70.3.19-13.36,8.72-11.42,32.72,132.84.58-8.14-15.68L376.46,1235l-7.56-12.59-.38-8.91Z"/><path class="cls-59" d="M400.27,1253.19l-31.95,43.38-79.2.19L268,1252.61Z"/><path id="arm" class="cls-80" d="M269.37,771.78s4.12-1.25,10.65,4.65,50,51.12,50,51.12l21.3.39s-3.14,26.42.2,31.37c-32.48-1.07-32.54-1.16-32.54-1.16a21,21,0,0,1-12-5.42c-5.94-5.23-34.09-31.18-34.09-31.18Z"/><path id="legs" class="cls-81" d="M280.31,944.9l51.64,115s1.49,3,1.51,16.65,0,105.35,0,105.35l-37.08.38.95-99.14a12.8,12.8,0,0,0-2.46-6c-2.34-3.39-38.59-81.52-38.59-81.52l-29.51-.58L226.21,1223H186.29V946.06Z"/><path id="light" class="cls-82" d="M226.38,995.06s-9,9.19-9.49,72.23-.77,155.5-.77,155.5H226Z"/><path id="shadow-3" class="cls-59" d="M364.26,1210.78s-8.14,21.39-29.05,21.69-39.89,1.74-39.89,1.74l.19-22.85Z"/><path class="cls-83" d="M370.26,1213.88l-2.32-6.2-3.88-3.1-71.07-.77-7.16,5.42-6.78,11,10.85,3.1,47.25-1,25.94-4.07Z"/><path class="cls-83" d="M363.48,1218.72l-1.35,7.94,3.87,11,14.33,7.16,2.13,8.33-30.6-.39,2.33-13.17-1-10.65-1.55-8.13Z"/><path class="cls-84" d="M290.48,1224l-3.3,19.36L325,1253l-57.13-.59,11.23-32.33Z"/><path id="shoe" class="cls-81" d="M295.9,1181.15l-.78,30.21H365s.72-15.19-10.65-17.81c-14.76-5.72-22.66-11.62-22.66-11.62Z"/><path id="shadow-4" class="cls-80" d="M215.73,983.24,255,987.89l1.16,7.94,41.25,85.79L295.12,1211l25.95.2L319.52,1181V1064.58l-50-119.29-34.08.58-18.2,1.36Z"/><path id="shadow2" class="cls-59" d="M256,1252.61s-14.62,22.67-32.15,22.65a237,237,0,0,1-35.24-3.09l-1.16-22.66Z"/><path id="shoe_copy_2" data-name="shoe copy 2" class="cls-81" d="M187.46,1222.4l-.78,30.21h69.91s.72-15.2-10.65-17.82c-14.76-5.71-22.66-11.62-22.66-11.62Z"/><path id="body_main" data-name="body main" class="cls-81" d="M279.24,814.58l1,133.23-93.72-1.16V761.32h89.85Z"/><path id="shadow-5" class="cls-80" d="M231,762.68H196.56l-10.85,455.65,18.21,1.36,13.74-272.08,18.79-1.16s-12.47-10.9-14.14-28.66,23.07-119.88,35.44-126.64,5.23-24.4,5.23-24.4Z"/><path class="cls-82" d="M276.15,761.52l-34.67.39s19.2,1.39,20.72,5,5.82,14.29-5.61,24.21c-10.62,17.91-11.9,150.78.58,152.4s12.39,1.55,12.39,1.55l4.65,10.45s44.87,100,44.93,109.8.19,115.61.19,115.61,8.26,4.4,12.2.77,1.55-114.83,1.55-114.83-2.81-10.28-5.42-15.1-43.77-107.67-43.77-107.67l-6.78-118.51,11-18.21s28.4,28,34.67,28.08,26.91,1.16,26.91,1.16-1-3.25,2.13-7.74c-23.57-.94-23.62-1-23.62-1S282.62,773,276.15,761.52Z"/><path class="cls-80" d="M288.54,808.77l-26.72-25s-15,15.54-14.33,38.92,29.82,90.71,31.17,47.06,2.13-42.41,2.13-42.41Z"/><path id="neck" class="cls-85" d="M267,746s-1.77,3.13-1.74,4.06,1.08.86,1.16,1.75-1.13.45-1.16,1.74.87.25,1,1.35-.93,1-1,2.13.8.53.78,1.75-1.19,1.61-1.17,2.51a1.27,1.27,0,0,0,.59,1.17H208s-.57-2.92-.58-2.13.63-1.73.58-1-.56-3.83-.58-2.71.5-2.29.58-1.36-.61-3.3-.58-2.32.72-2.57.78-1.55-.44-3.34-.39-2.13-1.16-3.49-1.16-3.49Z"/><path id="neck_copy" data-name="neck copy" class="cls-80" d="M239.35,746a27.63,27.63,0,0,0-.86,4.06c0,.94.53.86.58,1.75s-.56.45-.58,1.74.43.25.48,1.35-.46,1-.48,2.13.39.53.38,1.75-.58,1.61-.57,2.51.29,1.17.29,1.17H210.2s-.28-2.92-.29-2.13.31-1.73.29-1-.28-3.83-.29-2.71.25-2.29.29-1.36-.3-3.3-.29-2.32.36-2.57.39-1.55-.22-3.34-.2-2.13-.57-3.49-.57-3.49Z"/><path id="neck_high" data-name="neck high" class="cls-82" d="M265.5,753a9.23,9.23,0,0,1-1.94.77,4.22,4.22,0,0,1-1.55.2l-.77-.39s4-1.66,4.06-2.91.2-.19.2-.19,1,.49,1,1S266.48,752.4,265.5,753Z"/><path id="neck_high_copy" data-name="neck high copy" class="cls-82" d="M208.41,749.9a9.69,9.69,0,0,0,2,.76,4.54,4.54,0,0,0,1.61.2l.8-.39s-4.15-1.64-4.21-2.87-.2-.19-.2-.19-1,.48-1,1S207.38,749.3,208.41,749.9Z"/><path id="neck_high_copy_2" data-name="neck high copy 2" class="cls-82" d="M208.21,754.16a9.56,9.56,0,0,0,2,.76,4.54,4.54,0,0,0,1.61.2l.8-.39s-4.15-1.64-4.22-2.87-.2-.19-.2-.19-1,.48-1,1S207.19,753.56,208.21,754.16Z"/><path id="neck_high_copy_3" data-name="neck high copy 3" class="cls-82" d="M208.21,758.61a9.59,9.59,0,0,0,2,.77,4.33,4.33,0,0,0,1.61.19l.8-.38s-4.15-1.65-4.22-2.88-.2-.19-.2-.19-1,.49-1,1S207.19,758,208.21,758.61Z"/><path id="neck_high_copy_6" data-name="neck high copy 6" class="cls-82" d="M208.21,756.67a9.59,9.59,0,0,0,2,.77,4.33,4.33,0,0,0,1.61.19l.8-.38s-4.15-1.64-4.22-2.87-.2-.2-.2-.2-1,.49-1,1S207.19,756.08,208.21,756.67Z"/><path id="neck_high_copy_7" data-name="neck high copy 7" class="cls-82" d="M208.21,752.22a9.59,9.59,0,0,0,2,.77,4.33,4.33,0,0,0,1.61.19l.8-.38s-4.15-1.65-4.22-2.88-.2-.19-.2-.19-1,.49-1,1S207.19,751.63,208.21,752.22Z"/><path id="shad_ring" data-name="shad ring" class="cls-82" d="M262.2,761.52s-38.61,1.45-51.51-1.94c.13-1.36,0-1.35,0-1.35s18.43,4.11,51.13,2.51c.52.79.58.78.58.78"/><path id="shad_ring_copy_3" data-name="shad ring copy 3" class="cls-82" d="M262.2,759.39s-38.61,1.45-51.51-1.94c.13-1.36,0-1.35,0-1.35s18.43,4.11,51.13,2.51c.52.79.58.78.58.78"/><path id="shad_ring_copy_4" data-name="shad ring copy 4" class="cls-82" d="M262.2,755.13s-38.61,1.45-51.51-1.94c.13-1.36,0-1.35,0-1.35s18.43,4.11,51.13,2.51c.52.79.58.78.58.78"/><path id="shad_ring_copy" data-name="shad ring copy" class="cls-82" d="M262.2,757.06s-38.61,1.46-51.51-1.93c.13-1.36,0-1.36,0-1.36s18.43,4.12,51.13,2.52c.52.79.58.77.58.77"/><path id="shad_ring_copy_2" data-name="shad ring copy 2" class="cls-82" d="M262.16,753.94s-38.63.61-51.45-3.05c.16-1.36,0-1.36,0-1.36s18.33,4.52,51.05,3.63c.51.8.57.79.57.79"/><path id="neck_high-2" data-name="neck high-2" class="cls-82" d="M265.5,756.87a9.84,9.84,0,0,1-1.94.78,4,4,0,0,1-1.55.19l-.77-.39s4-1.66,4.06-2.9.2-.2.2-.2,1,.5,1,1S266.48,756.27,265.5,756.87Z"/><path id="neck_high_copy_4" data-name="neck high copy 4" class="cls-82" d="M265.5,754.55a9.23,9.23,0,0,1-1.94.77,4.22,4.22,0,0,1-1.55.2l-.77-.39s4-1.66,4.06-2.91.2-.19.2-.19,1,.49,1,1S266.48,753.94,265.5,754.55Z"/><path id="neck_high-3" data-name="neck high-3" class="cls-82" d="M265.5,760.74a9.84,9.84,0,0,1-1.94.78,4,4,0,0,1-1.55.19l-.77-.39s4-1.66,4.06-2.9.2-.19.2-.19,1,.49,1,1S266.48,760.14,265.5,760.74Z"/><path id="neck_high_copy_5" data-name="neck high copy 5" class="cls-82" d="M265.5,758.81a9.23,9.23,0,0,1-1.94.77,4.22,4.22,0,0,1-1.55.2l-.77-.39s4-1.66,4.06-2.91.2-.19.2-.19,1,.49,1,1S266.48,758.2,265.5,758.81Z"/><g id="Helmet"><path id="windshield-fill" class="cls-86" d="M282.05,668.64s10,13.72,9.73,31-18.6,39.4-22.69,41.89S245.64,752.65,234.68,752s-26-4.39-31.41-8.28-2.75-61.3-2.75-61.3l35.41-21.54Z"/><path id="fill_helmet_dartk" data-name="fill helmet dartk" class="cls-87" d="M281.18,732.08S267.56,744,251.94,743.9s-5.81-13.37-5.81-13.37S283.16,725.82,281.18,732.08Z"/><path id="skin" class="cls-88" d="M212.75,657.84h36.74a19.37,19.37,0,0,1,19.37,19.37v49.2a19.36,19.36,0,0,1-19.37,19.36H212.75a19.36,19.36,0,0,1-19.36-19.36v-49.2A19.36,19.36,0,0,1,212.75,657.84Z"/><path id="skin_high" data-name="skin high" class="cls-89" d="M262.38,677s-1.06,39.17-1.49,46.83S246,743.79,242.21,745.52s9.46,2.49,9.46,2.49l4.49-5s11.67-8.43,12.2-17.93.92-39.44,1-43.84a41.61,41.61,0,0,0-.25-6.48l-4.48-.25Z"/><path id="dark_skin" data-name="dark skin" class="cls-90" d="M252.92,691.72s-9.23,46.85-25.91,50.81a80.58,80.58,0,0,1-15.19-3l.75-44.08L241.46,682Z"/><path id="glass_light3" data-name="glass light3" class="cls-56" d="M275.6,729.33h5.23a.87.87,0,0,1,.87.87v.5a.87.87,0,0,1-.87.87H275.6a.87.87,0,0,1-.87-.87v-.5A.87.87,0,0,1,275.6,729.33Z"/><path id="glass_light2" data-name="glass light2" class="cls-56" d="M279.18,726.84H283a.58.58,0,0,1,.58.58v.33a.58.58,0,0,1-.58.58h-3.82a.58.58,0,0,1-.58-.58v-.33a.58.58,0,0,1,.58-.58Z"/><path id="glass_light" data-name="glass light" class="cls-56" d="M285.13,689.48h5.07a.58.58,0,0,1,.58.58v.33a.58.58,0,0,1-.58.58h-5.07a.58.58,0,0,1-.58-.58v-.33A.58.58,0,0,1,285.13,689.48Z"/><path class="cls-91" d="M215.73,736.34l22.85-20.72-.78-1s-7.06,1.46-7.16-11.43c0-8.52,1.88-14,14.33-14.14-.06,10.87,0,10.85,0,10.85l2.71.19s4.71-.21,6.39-11.62c.75-7.36,1.31-11.88,4.84-12s10.07,0,10.07,0,.56-.62.39,9.1c3.32,0,14.91-.78,14.91-.78l-4.84-8.32,6.78-.2a54.42,54.42,0,0,0-3.49-6.58c-7,0-43.57.77-43.57.77l-33.7,25.76Z"/><path class="cls-92" d="M283.56,673.29s-32.93-1.55-33.63,7,1,13.27-1,15a5,5,0,0,1-3.48,1.49v-10s-14.87-5.18-19.18,5.23-4.82,24.73-7.48,31.88-5.48,8.72-5.48,8.72l-2-52.06,40.6-16.44,25.16,1.25Z"/><circle class="cls-75" cx="263.63" cy="695.46" r="3.99"/><circle id="Ellipse_4_copy" data-name="Ellipse 4 copy" class="cls-93" cx="265.25" cy="694.08" r="1.37"/><path class="cls-94" d="M276.33,685.49s10.2,30.21-7.72,53.8c9.38-4.85,8.48-1.8,11.71-6s7.81-13.13,8.72-16.69,3-13.21,2.24-21.42-5-18.69-5-18.69h-7l5,8.47Z"/><path id="fill" class="cls-85" d="M283.56,669.82s-66.18-3-66.18,36.86v33.37s46.43,13.93,65.94-11c-13.94,21.06-36.17,27.63-46.77,27.64s-28-7.71-36.94-16.19-14.11-20.77-14.73-28.38-3.45-24.76,4.91-38.6,17.2-22.87,25.49-25.9,16.26-5.56,25.25-5.23,20.38,4.7,25.25,8.22S276.89,660.55,283.56,669.82Z"/><path id="highlight" class="cls-82" d="M248.19,646.39S226,663.46,237,666.56s17.93,1,17.93,1,17-2.64,21.17-1.5S267.28,651.07,248.19,646.39Z"/><path id="Rounded_Rectangle_4" data-name="Rounded Rectangle 4" class="cls-95" d="M195.9,698.2h.45a.76.76,0,0,1,.77.77v12.4a.76.76,0,0,1-.77.77h-.45a.77.77,0,0,1-.77-.77V699A.77.77,0,0,1,195.9,698.2Z"/><path id="Rounded_Rectangle_4_copy" data-name="Rounded Rectangle 4 copy" class="cls-95" d="M193.41,698.2h.45a.76.76,0,0,1,.77.77v12.4a.76.76,0,0,1-.77.77h-.45a.77.77,0,0,1-.77-.77V699A.77.77,0,0,1,193.41,698.2Z"/><path id="Rounded_Rectangle_4_copy_2" data-name="Rounded Rectangle 4 copy 2" class="cls-95" d="M190.92,698.2h.45a.77.77,0,0,1,.77.77v12.4a.77.77,0,0,1-.77.77h-.45a.76.76,0,0,1-.77-.77V699A.76.76,0,0,1,190.92,698.2Z"/><path class="cls-96" d="M279.07,734.31s-19.91,18.28-66.75,5.73c.83-39.63.74-39.6.74-39.6s2.94-31.08,69.75-31.14c-1.46-2.56-1.5-2.74-1.5-2.74s-73.34,0-73.72,34.13-.25,43.09-.25,43.09,35.34,12,66.25-2.74c5.43-6.57,5.48-6.48,5.48-6.48"/><path class="cls-97" d="M235.48,643.19s-43.58,51.7-31.06,100.34c-9.25-12.93-8.9-10.16-11-16.68s-8.61-23.48-5.32-37.6,6.43-24.62,16.35-32.87S220.78,642.62,235.48,643.19Z"/><path id="antenna_copy" data-name="antenna copy" class="cls-98" d="M211.94,699.44h2.5a4.36,4.36,0,0,1,4.35,4.36v9.71a4.36,4.36,0,0,1-4.35,4.36h-2.5a4.34,4.34,0,0,1-4.35-4.35h0V703.8a4.34,4.34,0,0,1,4.35-4.36Z"/><path id="antenna" class="cls-99" d="M212.72,699.45a5.6,5.6,0,0,1,5.27,5.92l-.41,7.21a5.6,5.6,0,0,1-11.19-.62v0l.41-7.21a5.62,5.62,0,0,1,5.92-5.28Z"/><path id="Rounded_Rectangle_2_copy" data-name="Rounded Rectangle 2 copy" class="cls-100" d="M212.84,682a.62.62,0,0,1,.58.66h0l-1.21,17.89a.62.62,0,0,1-1.24-.06v0l1.2-17.9a.62.62,0,0,1,.67-.57Z"/><path id="Rounded_Rectangle_2" data-name="Rounded Rectangle 2" class="cls-99" d="M212.2,682a.63.63,0,0,1,.57.67h0l-1.41,17.88a.61.61,0,0,1-.67.57.61.61,0,0,1-.57-.67h0l1.41-17.88a.62.62,0,0,1,.67-.57Z"/></g><path class="cls-101" d="M207.4,921.86H140s-16.12-4-17.23-12.78-10.52-138.19-11-146.59,5.31-17.9,20.33-18.4,75.52-1.36,75.52-1.36Z"/><path id="back1_copy" data-name="back1 copy" class="cls-102" d="M235.48,762.87V902.3s-6.18,20-23.24,20-20.72-13-20.72-19-10.07-130.2-10.07-141.36,9.31-19.18,23.43-19.18S235.48,741.51,235.48,762.87Z"/><path class="cls-103" d="M210.31,915.47H207s-2.71-1.27-2.71-6.2,2.41-5.81,3.68-5.81a14,14,0,0,0,2.33-.19Z"/><ellipse id="Ellipse_6_copy" data-name="Ellipse 6 copy" class="cls-104" cx="212.73" cy="883.03" rx="3.78" ry="5.52"/><ellipse class="cls-105" cx="213.89" cy="883.03" rx="3.78" ry="5.52"/><path class="cls-99" d="M214.76,880.22c-.38.6.58,1,.58,1s2,4.84-1.55,4.84-1.16-4.64-1.16-4.64a1.69,1.69,0,0,0,.19-1c0-.71-.31-.26-.58-.2s-3.46,6.78,1.55,6.78,2.52-6,2.52-6S215.33,879.33,214.76,880.22Z"/><path id="Rounded_Rectangle_8" data-name="Rounded Rectangle 8" d="M213.79,878.67h0a.39.39,0,0,1,.39.39v3.68a.38.38,0,0,1-.39.39h0a.39.39,0,0,1-.39-.39v-3.68A.4.4,0,0,1,213.79,878.67Z"/><path id="Rounded_Rectangle_7" data-name="Rounded Rectangle 7" class="cls-95" d="M136.17,904.81l41.35-2.76a1,1,0,0,1,1,.9h0l0,.38a1,1,0,0,1-.9,1l-41.35,2.77a1,1,0,0,1-1-.9l0-.38a1,1,0,0,1,.9-1Z"/><path id="Rounded_Rectangle_7_copy" data-name="Rounded Rectangle 7 copy" class="cls-95" d="M135.92,901l41.34-2.77a1,1,0,0,1,1,.9l0,.39a1,1,0,0,1-.9,1h0l-41.35,2.77a1,1,0,0,1-1-.9h0l0-.39a1,1,0,0,1,.91-1Z"/><path id="Rounded_Rectangle_7_copy_2" data-name="Rounded Rectangle 7 copy 2" class="cls-95" d="M135.66,897.08,177,894.32a1,1,0,0,1,1,.9l0,.38a1,1,0,0,1-.9,1l-41.35,2.76a1,1,0,0,1-1-.9l0-.38a1,1,0,0,1,.9-1Z"/><path id="Rounded_Rectangle_7_copy_3" data-name="Rounded Rectangle 7 copy 3" class="cls-95" d="M135.4,893.22l41.35-2.77a1,1,0,0,1,1,.9h0l0,.39a1,1,0,0,1-.9,1h0l-41.35,2.77a1,1,0,0,1-1-.9h0l0-.39A1,1,0,0,1,135.4,893.22Z"/><path id="Rounded_Rectangle_7_copy_4" data-name="Rounded Rectangle 7 copy 4" class="cls-95" d="M135.14,889.36l41.35-2.77a1,1,0,0,1,1,.9h0l0,.38a1,1,0,0,1-.9,1l-41.35,2.77a1,1,0,0,1-1-.91h0l0-.38A1,1,0,0,1,135.14,889.36Z"/><path id="Rounded_Rectangle_7_copy_5" data-name="Rounded Rectangle 7 copy 5" class="cls-95" d="M134.88,885.49l41.35-2.77a1,1,0,0,1,1,.9h0l0,.39a1,1,0,0,1-.91,1L135,887.81a1,1,0,0,1-1-.9h0l0-.39a1,1,0,0,1,.9-1Z"/><path id="Rounded_Rectangle_7_copy_6" data-name="Rounded Rectangle 7 copy 6" class="cls-95" d="M134.62,881.63,176,878.86a1,1,0,0,1,1,.9h0l0,.39a1,1,0,0,1-.9,1h0L134.78,884a1,1,0,0,1-1-.9l0-.39A1,1,0,0,1,134.62,881.63Z"/><path id="Rounded_Rectangle_7_copy_7" data-name="Rounded Rectangle 7 copy 7" class="cls-95" d="M134.36,877.76,175.71,875a1,1,0,0,1,1,.89h0l0,.38a1,1,0,0,1-.9,1h0l-41.35,2.77a1,1,0,0,1-1-.9l0-.39a1,1,0,0,1,.9-1Z"/><path id="Rounded_Rectangle_7_copy_8" data-name="Rounded Rectangle 7 copy 8" class="cls-95" d="M134.1,873.9l41.35-2.77a1,1,0,0,1,1,.9l0,.39a1,1,0,0,1-.9,1h0l-41.35,2.77a1,1,0,0,1-1-.9h0l0-.39A1,1,0,0,1,134.1,873.9Z"/><ellipse class="cls-106" cx="210.4" cy="909.37" rx="3.97" ry="6.1"/><ellipse id="Ellipse_5_copy" data-name="Ellipse 5 copy" class="cls-107" cx="210.6" cy="909.27" rx="3.39" ry="5.42"/><path id="shadow-6" class="cls-59" d="M461.85,1234.6s67.21,11.14,68.75,24.4.83,26.23-6,26.92-71.05,9.42-91.21,8.52-56-7.68-70.49-9.88-51.7-22.66-51.7-22.66l47.63,4.65,23.24,7,40.28,4.65,62.16-1.94,33.31-5.23s5.09-8.29-7.94-11-53.45-9.49-53.45-9.49S450,1234.72,461.85,1234.6Z"/><path class="cls-101" d="M390.79,857.76v89.08c0,16.07-4.87,189.36,51.89,246.12s-35.43,52.93,56.55,62.94c33.75,4.8,28.53,19.23,11.42,19.17s-94.19,11.44-132.06-1.35-67.55,6.14-81.34-28.86S238.3,911.79,224.06,911.79s-13.37.58-13.37.58-4.11-2.67-1-6.2c4.43.14,15.49-.38,15.49-.38s7.19-8,18.39,44.15,51.9,280.65,58.68,292.4,5.34,20.87,48.8,20.72c18.23,2.41,23.44,4.12,28.66,5.81s25,9.78,77.65,6c52.64-4.32,42.57-3.08,52.67-4.26s11.21-8-11.62-10.65-41.53-3.91-48.21-10.65,9.33-13.76,7-23.63-10.91-21.89-18.21-29-25.21-23.65-37.56-79-18-122.12-17.43-136.91.36-119.74.77-124.52S390.79,857.76,390.79,857.76Z"/><path id="steckerbot" class="cls-101" d="M393.14,813.58V795.93s7.13.51,7.13-3.37-.42-18.07-.42-18.07H372.58v19.75a7.3,7.3,0,0,0,5,2.11c.76,3.9,2.51,17.65,2.51,17.65Z"/><path class="cls-108" d="M399.5,778.75l-11.23,3.68.19,30.4h4.07L392,794.24s8.15,1.57,7.94-1.93S399.5,778.75,399.5,778.75Z"/><ellipse id="steckertop_copy" data-name="steckertop copy" class="cls-109" cx="386.33" cy="775.65" rx="13.94" ry="4.84"/><ellipse id="steckertop" class="cls-110" cx="386.82" cy="775.56" rx="11.52" ry="3.97"/><circle id="steckeerlocjh" class="cls-111" cx="391.08" cy="775.56" r="2.03"/><circle id="steckeerlocjh_copy" data-name="steckeerlocjh copy" class="cls-112" cx="381.59" cy="775.56" r="2.03"/><path class="cls-113" d="M393.11,775.65a2.63,2.63,0,0,1-4.07,0c.09-2.22,1.59-2.16,2-2.11A1.92,1.92,0,0,1,393.11,775.65Z"/><path id="Shape_50_copy" data-name="Shape 50 copy" class="cls-113" d="M383.62,775.65a2.63,2.63,0,0,1-4.07,0c.09-2.22,1.59-2.16,2-2.11A1.92,1.92,0,0,1,383.62,775.65Z"/><path id="hand" class="cls-114" d="M350.7,831.62l18.78-1.36s5.22-1.28,4.65-4.64-2.7-12,3.87-12h21.11s8.46.39,8.72,6.58.19,25.95.19,25.95-4.71,10.65-13.56,10.65h-43S347.42,846.61,350.7,831.62Z"/><path class="cls-115" d="M376.07,819s24.27-3.18,23.24,7.36-5.81,30.21-5.81,30.21,9.19,1.08,14.13-10.46c.24-18.59,0-26.72,0-26.72s-2.23-5.51-6.58-5.62S379.75,812.7,376.07,819Z"/></g></svg>
