<svg xmlns="http://www.w3.org/2000/svg" width="1000" height="800" viewBox="0 0 1000 800"><rect width="100%" height="100%" fill="#EEE"/><path fill="#31343C" d="M240.9 431.74h15.34v10.92h-47.2v-10.92h17.29v-49.73q0-2.95.18-6.08l-12.28 10.27q-1.06.82-2.09 1.03-1.03.21-1.95.03-.91-.18-1.62-.62-.71-.44-1.06-.97l-4.6-6.32 26.01-22.12h11.98v74.51ZM329.11 400q0 11.15-2.39 19.38-2.39 8.23-6.61 13.6-4.22 5.37-9.97 8-5.75 2.62-12.42 2.62t-12.36-2.62q-5.7-2.63-9.88-8-4.19-5.37-6.55-13.6-2.36-8.23-2.36-19.38 0-11.21 2.36-19.41t6.55-13.57q4.18-5.37 9.88-7.99 5.69-2.63 12.36-2.63 6.67 0 12.42 2.63 5.75 2.62 9.97 7.99 4.22 5.37 6.61 13.57 2.39 8.2 2.39 19.41Zm-15.05 0q0-9.26-1.36-15.34-1.35-6.07-3.62-9.67-2.28-3.6-5.23-5.05-2.95-1.44-6.13-1.44-3.13 0-6.05 1.44-2.92 1.45-5.16 5.05-2.24 3.6-3.57 9.67-1.33 6.08-1.33 15.34 0 9.27 1.33 15.34 1.33 6.08 3.57 9.68 2.24 3.6 5.16 5.04 2.92 1.45 6.05 1.45 3.18 0 6.13-1.45 2.95-1.44 5.23-5.04 2.27-3.6 3.62-9.68 1.36-6.07 1.36-15.34Zm83.49 0q0 11.15-2.39 19.38-2.39 8.23-6.61 13.6-4.22 5.37-9.97 8-5.75 2.62-12.42 2.62t-12.36-2.62q-5.7-2.63-9.88-8-4.19-5.37-6.55-13.6-2.36-8.23-2.36-19.38 0-11.21 2.36-19.41t6.55-13.57q4.18-5.37 9.88-7.99 5.69-2.63 12.36-2.63 6.67 0 12.42 2.63 5.75 2.62 9.97 7.99 4.22 5.37 6.61 13.57 2.39 8.2 2.39 19.41Zm-15.05 0q0-9.26-1.36-15.34-1.35-6.07-3.62-9.67-2.28-3.6-5.23-5.05-2.95-1.44-6.13-1.44-3.13 0-6.05 1.44-2.92 1.45-5.16 5.05-2.24 3.6-3.57 9.67-1.33 6.08-1.33 15.34 0 9.27 1.33 15.34 1.33 6.08 3.57 9.68 2.24 3.6 5.16 5.04 2.92 1.45 6.05 1.45 3.18 0 6.13-1.45 2.95-1.44 5.23-5.04 2.27-3.6 3.62-9.68 1.36-6.07 1.36-15.34Zm83.49 0q0 11.15-2.39 19.38-2.39 8.23-6.61 13.6-4.22 5.37-9.97 8-5.75 2.62-12.42 2.62t-12.36-2.62q-5.7-2.63-9.88-8-4.19-5.37-6.55-13.6-2.36-8.23-2.36-19.38 0-11.21 2.36-19.41t6.55-13.57q4.18-5.37 9.88-7.99 5.69-2.63 12.36-2.63 6.67 0 12.42 2.63 5.75 2.62 9.97 7.99 4.22 5.37 6.61 13.57 2.39 8.2 2.39 19.41Zm-15.05 0q0-9.26-1.36-15.34-1.35-6.07-3.62-9.67-2.28-3.6-5.23-5.05-2.95-1.44-6.13-1.44-3.13 0-6.05 1.44-2.92 1.45-5.16 5.05-2.24 3.6-3.57 9.67-1.33 6.08-1.33 15.34 0 9.27 1.33 15.34 1.33 6.08 3.57 9.68 2.24 3.6 5.16 5.04 2.92 1.45 6.05 1.45 3.18 0 6.13-1.45 2.95-1.44 5.23-5.04 2.27-3.6 3.62-9.68 1.36-6.07 1.36-15.34Zm108.74 23.13-7.73 7.61-20-20-20.18 20.12-7.73-7.61 20.18-20.24-19.23-19.23 7.67-7.67 19.23 19.23 19.12-19.11 7.78 7.67-19.17 19.17 20.06 20.06Zm69.26 9.09q3.6 0 6.32-1.04 2.71-1.03 4.57-2.86 1.86-1.83 2.8-4.36.95-2.54.95-5.49 0-7.02-3.9-10.62-3.89-3.6-10.74-3.6-6.84 0-10.73 3.6-3.9 3.6-3.9 10.62 0 2.95.95 5.49.94 2.53 2.8 4.36 1.86 1.83 4.57 2.86 2.72 1.04 6.31 1.04Zm0-64.84q-3.24 0-5.6 1-2.36 1-3.92 2.68-1.57 1.68-2.31 3.87-.73 2.18-.73 4.6 0 2.54.62 4.93.62 2.39 2.09 4.24 1.48 1.86 3.9 2.98 2.41 1.12 5.95 1.12t5.96-1.12q2.42-1.12 3.9-2.98 1.47-1.85 2.09-4.24.62-2.39.62-4.93 0-2.42-.77-4.6-.76-2.19-2.3-3.87-1.53-1.68-3.89-2.68-2.36-1-5.61-1Zm14.4 30.79q7.79 2.54 11.51 7.76 3.71 5.22 3.71 12.78 0 5.66-2.15 10.26t-6.05 7.85q-3.89 3.24-9.35 5.01-5.46 1.77-12.07 1.77-6.6 0-12.06-1.77-5.46-1.77-9.35-5.01-3.9-3.25-6.05-7.85t-2.15-10.26q0-7.56 3.71-12.78 3.72-5.22 11.51-7.76-6.2-2.59-9.29-7.37-3.1-4.78-3.1-11.51 0-4.83 1.97-9.02 1.98-4.19 5.52-7.29 3.54-3.1 8.47-4.84 4.92-1.74 10.82-1.74t10.83 1.74q4.93 1.74 8.47 4.84 3.54 3.1 5.51 7.29 1.98 4.19 1.98 9.02 0 6.73-3.1 11.51-3.09 4.78-9.29 7.37Zm85.31 1.83q0 11.15-2.39 19.38-2.38 8.23-6.6 13.6-4.22 5.37-9.97 8-5.76 2.62-12.42 2.62-6.67 0-12.36-2.62-5.7-2.63-9.89-8t-6.55-13.6q-2.36-8.23-2.36-19.38 0-11.21 2.36-19.41t6.55-13.57q4.19-5.37 9.89-7.99 5.69-2.63 12.36-2.63 6.66 0 12.42 2.63 5.75 2.62 9.97 7.99 4.22 5.37 6.6 13.57 2.39 8.2 2.39 19.41Zm-15.04 0q0-9.26-1.36-15.34-1.35-6.07-3.63-9.67-2.27-3.6-5.22-5.05-2.95-1.44-6.13-1.44-3.13 0-6.05 1.44-2.92 1.45-5.16 5.05-2.25 3.6-3.57 9.67-1.33 6.08-1.33 15.34 0 9.27 1.33 15.34 1.32 6.08 3.57 9.68 2.24 3.6 5.16 5.04 2.92 1.45 6.05 1.45 3.18 0 6.13-1.45 2.95-1.44 5.22-5.04 2.28-3.6 3.63-9.68 1.36-6.07 1.36-15.34Zm83.48 0q0 11.15-2.39 19.38-2.38 8.23-6.6 13.6-4.22 5.37-9.97 8-5.76 2.62-12.42 2.62-6.67 0-12.36-2.62-5.7-2.63-9.89-8t-6.55-13.6q-2.36-8.23-2.36-19.38 0-11.21 2.36-19.41t6.55-13.57q4.19-5.37 9.89-7.99 5.69-2.63 12.36-2.63 6.66 0 12.42 2.63 5.75 2.62 9.97 7.99 4.22 5.37 6.6 13.57 2.39 8.2 2.39 19.41Zm-15.04 0q0-9.26-1.36-15.34-1.35-6.07-3.63-9.67-2.27-3.6-5.22-5.05-2.95-1.44-6.13-1.44-3.13 0-6.05 1.44-2.92 1.45-5.16 5.05-2.25 3.6-3.57 9.67-1.33 6.08-1.33 15.34 0 9.27 1.33 15.34 1.32 6.08 3.57 9.68 2.24 3.6 5.16 5.04 2.92 1.45 6.05 1.45 3.18 0 6.13-1.45 2.95-1.44 5.22-5.04 2.28-3.6 3.63-9.68 1.36-6.07 1.36-15.34Z"/></svg>